<svg width="1440" height="194" viewBox="0 0 1440 194" fill="none" xmlns="http://www.w3.org/2000/svg">
<path d="M138.84 61.5428C138.84 55.5366 142.721 51.0972 148.499 51.0972C153.07 51.0972 156.778 53.8827 156.778 56.6682C156.778 57.8433 156.002 58.6267 154.708 58.6267C151.56 58.6267 151.69 52.8817 147.55 52.8817C145.222 52.8817 143.109 55.1884 143.109 58.8879C143.109 64.72 146.515 68.5501 150.051 68.5501C152.983 68.5501 154.665 66.4174 155.571 64.8506C156.045 64.2413 157.08 64.4153 156.95 65.3293C156.649 69.0288 153.975 72.5107 148.758 72.5107C143.238 72.5107 138.84 67.2008 138.84 61.5428Z" fill="#133A23"/>
<path d="M158.373 71.7277V71.5971C158.373 70.8572 159.494 70.6396 159.494 69.3774V54.9277C159.494 53.622 158.373 53.3173 158.373 52.708V52.5774C158.373 52.2727 158.589 52.1422 158.934 51.9681L162.599 50.1401C163.375 49.7484 163.806 50.1837 163.806 50.6624V69.3339C163.806 70.5525 165.057 70.8137 165.057 71.5536V71.6841C165.057 71.9888 164.755 72.2064 164.367 72.2064H159.063C158.632 72.2064 158.373 72.0323 158.373 71.7277Z" fill="#133A23"/>
<path d="M179.502 68.0713C179.33 69.7687 177.346 72.5107 173.595 72.5107C169.542 72.5107 166.566 69.5511 166.566 65.0247C166.48 61.1511 169.498 57.8869 173.379 57.7998C173.466 57.7998 173.552 57.7998 173.595 57.7998C177.39 57.7998 179.114 60.0195 179.114 61.978C179.157 62.8485 178.64 63.6319 177.821 63.9366L171.353 66.8962C171.999 68.463 173.509 69.4641 175.19 69.4641C176.527 69.5076 177.778 68.8547 178.511 67.7666C178.856 67.3314 179.502 67.462 179.502 68.0713ZM170.576 63.0226C170.576 63.8931 170.663 64.72 170.878 65.547L174.63 63.6319C175.147 63.3708 175.449 62.805 175.406 62.2392C175.406 61.1946 174.63 59.1055 173.077 59.1055C171.525 59.1055 170.576 60.8029 170.576 63.0226Z" fill="#133A23"/>
<path d="M192.524 60.4986C192.524 61.7173 192.05 62.8054 190.67 62.8054C188.385 62.8054 189.42 60.281 187.824 60.281C186.703 60.281 186.272 61.8914 186.272 63.5017V69.3774C186.272 70.596 187.738 70.8572 187.738 71.5971V71.7276C187.738 72.0758 187.479 72.2499 187.091 72.2499H181.744C181.313 72.2499 181.054 72.0758 181.054 71.7276V71.5971C181.054 70.8572 182.176 70.6396 182.176 69.3774V62.5442C182.176 61.2385 180.839 61.1515 180.839 60.4116V60.281C180.839 59.9764 181.054 59.7587 181.443 59.5846L184.935 57.9308C185.582 57.6261 185.884 57.9743 185.884 58.5401V60.7598C186.531 58.8883 187.911 57.8437 189.851 57.8437C191.231 57.7567 192.438 58.8447 192.524 60.2375C192.524 60.3245 192.524 60.4116 192.524 60.4986Z" fill="#133A23"/>
<path d="M209.6 71.6404V71.7275C209.6 72.0757 209.385 72.2498 208.997 72.2498H203.564C203.262 72.2933 203.003 72.0757 203.003 71.771V71.7275V71.684C203.003 70.9441 204.081 70.77 203.607 70.0736L200.459 65.5907L198.734 67.2011V69.4207C198.734 70.6394 199.985 70.9005 199.985 71.6404V71.771C199.985 72.0757 199.726 72.2933 199.295 72.2933H193.948C193.56 72.2933 193.301 72.0757 193.301 71.771V71.6404C193.301 70.9005 194.422 70.6829 194.422 69.4207V54.9275C194.422 53.6218 193.128 53.3171 193.128 52.7078V52.5772C193.128 52.2726 193.344 52.142 193.732 51.9679L197.613 50.1399C198.303 49.7917 198.777 50.1834 198.777 50.6622V64.9378L203.391 60.9337C204.254 60.1938 202.701 59.4539 202.701 58.7575V58.627C202.701 58.3223 202.917 58.1047 203.305 58.1047H207.444C207.789 58.1047 208.048 58.2788 208.048 58.5834V58.714C208.048 59.4539 206.625 59.9327 205.547 60.8902L203.176 63.1099L208.048 70.0301C208.522 70.6829 209.6 70.9441 209.6 71.6404Z" fill="#133A23"/>
<path d="M209.6 69.0723C209.6 67.9407 210.376 67.462 211.325 67.462C213.869 67.462 212.877 71.3356 215.809 71.3356C217.017 71.3356 217.922 70.7262 217.922 69.377C217.922 65.4599 209.816 67.8972 209.816 62.1086C209.816 59.6278 212.23 57.7998 215.723 57.7998C219.388 57.7998 221.717 59.4972 221.717 61.3252C221.674 62.1957 220.941 62.892 220.121 62.8485C217.707 62.8485 218.569 59.0185 216.025 59.0185C214.99 58.9749 214.128 59.8019 214.128 60.8464C214.128 60.89 214.128 60.9335 214.128 60.977C214.128 64.9812 222.062 62.6309 222.062 68.2454C222.062 70.6392 219.733 72.4672 215.853 72.4672C212.058 72.4672 209.6 70.9003 209.6 69.0723Z" fill="#133A23"/>
<path d="M238.534 58.5834V58.714C238.534 59.4539 237.629 59.715 237.068 61.0207L231.549 73.1202C230.6 75.2093 228.185 80.3886 225.167 80.3886C222.537 80.3886 220.898 78.7782 220.898 77.2549C220.855 76.3409 221.545 75.5575 222.45 75.514C222.537 75.514 222.58 75.514 222.666 75.514C225.038 75.514 224.304 79.0394 225.814 79.0394C226.849 79.0394 228.918 75.0788 229.738 73.0767L223.916 61.0207C223.27 59.715 222.364 59.4539 222.364 58.714V58.5834C222.364 58.2788 222.623 58.1047 222.968 58.1047H228.401C228.66 58.0611 228.918 58.2788 228.961 58.5834V58.6269V58.7575C228.961 59.4974 227.883 59.5845 228.53 61.1078L231.937 69.0725L235.085 61.543C235.861 59.715 233.791 59.4974 233.791 58.801V58.6705C233.791 58.3658 234.007 58.1482 234.395 58.1482H237.93C238.275 58.1047 238.534 58.3223 238.534 58.5834Z" fill="#133A23"/>
<path d="M134.571 59.5846C134.614 59.6281 134.571 59.7151 134.528 59.7586C134.485 59.8022 134.399 59.7586 134.355 59.7151C133.493 58.4965 131.811 55.4934 131.941 50.4882C131.941 49.0084 132.242 47.5286 132.803 46.1359C133.277 45.0043 134.571 43.1328 136.037 43.7421C137.503 44.3514 135.477 46.6146 135.045 47.2675C132.544 51.054 133.148 55.5369 134.571 59.5846Z" fill="#FDBC4E"/>
<path d="M135.39 57.2777C135.39 57.3212 135.347 57.3212 135.304 57.3212C135.261 57.3212 135.261 57.2777 135.261 57.2777C135.088 55.4932 135.002 51.5761 136.64 48.1378C137.417 46.4404 138.624 44.9606 140.133 43.8725C140.694 43.4808 141.341 43.2632 142.03 43.2632C142.85 43.3502 143.497 44.0901 143.108 44.9171C142.505 46.1793 140.866 46.3533 139.831 47.1368C138.495 48.1378 137.546 49.6611 136.899 51.1844C136.123 53.0995 135.605 55.1886 135.39 57.2777Z" fill="#FDBC4E"/>
<path d="M137.029 56.3638C137.029 56.0156 137.072 55.6674 137.158 55.3628C137.503 54.1441 137.977 52.969 138.624 51.8809C140.349 48.9648 142.85 46.397 146.17 45.6136C147.162 45.3524 150.396 45.3524 149.361 47.2674C148.671 48.4861 146.688 47.9638 145.567 48.1814C143.411 48.6167 141.686 49.9659 140.177 51.4892C138.538 53.1866 137.115 56.4073 137.029 56.3638Z" fill="#FDBC4E"/>
<g clip-path="url(#clip0_1_1437)">
<path d="M1180.63 53.9806H1183V50.1688C1182.59 50.1169 1181.18 50 1179.54 50C1176.12 50 1173.78 51.9848 1173.78 55.6328V58.9901H1170V63.2514H1173.78V73.9736H1178.41V63.2524H1182.03L1182.6 58.9911H1178.4V56.0553C1178.41 54.8237 1178.77 53.9806 1180.63 53.9806Z" fill="#198C36"/>
</g>
<path d="M1227 51.2539C1225.88 51.7051 1224.7 52.0042 1223.46 52.1495C1224.73 51.4475 1225.7 50.3446 1226.16 49.0151C1224.97 49.6686 1223.66 50.1302 1222.26 50.3878C1221.13 49.2796 1219.52 48.5933 1217.77 48.5933C1214.36 48.5933 1211.62 51.1415 1211.62 54.2655C1211.62 54.715 1211.66 55.1472 1211.77 55.5587C1206.65 55.3288 1202.13 53.0692 1199.09 49.6271C1198.56 50.476 1198.25 51.4475 1198.25 52.4935C1198.25 54.4574 1199.34 56.1983 1200.98 57.2062C1199.99 57.189 1199.02 56.9244 1198.2 56.5078C1198.2 56.5251 1198.2 56.5476 1198.2 56.57C1198.2 59.3258 1200.33 61.6147 1203.13 62.142C1202.63 62.2682 1202.08 62.3287 1201.51 62.3287C1201.12 62.3287 1200.72 62.308 1200.35 62.2319C1201.15 64.4777 1203.41 66.1287 1206.1 66.1823C1204.01 67.6915 1201.35 68.6009 1198.47 68.6009C1197.97 68.6009 1197.48 68.5802 1197 68.5231C1199.72 70.143 1202.95 71.0679 1206.44 71.0679C1217.75 71.0679 1223.94 62.4238 1223.94 54.9311C1223.94 54.6804 1223.93 54.4384 1223.92 54.1981C1225.14 53.3994 1226.16 52.4019 1227 51.2539Z" fill="#198C36"/>
<g clip-path="url(#clip1_1_1437)">
<path d="M1266.61 46H1245.39C1242.97 46 1241 47.8179 1241 50.0519V69.6092C1241 71.8433 1242.97 73.6611 1245.39 73.6611H1266.61C1269.03 73.6611 1271 71.8433 1271 69.6092V50.0519C1271 47.8179 1269.03 46 1266.61 46ZM1251.61 67.9344H1248.09V56.589H1251.61V67.9344ZM1251.61 54.9683H1248.09V51.7267H1251.61V54.9683ZM1263.91 67.9344H1260.39V61.4513C1260.39 60.5578 1259.61 59.8306 1258.64 59.8306C1257.67 59.8306 1256.88 60.5578 1256.88 61.4513V67.9344H1253.36V56.589H1256.88V57.2C1257.8 56.936 1258.4 56.589 1259.52 56.589C1261.9 56.5913 1263.91 58.5635 1263.91 60.8942V67.9344Z" fill="#198C36"/>
</g>
<g clip-path="url(#clip2_1_1437)">
<path d="M1306.34 49H1288.66C1286.64 49 1285 50.643 1285 52.6621V70.3379C1285 72.357 1286.64 74 1288.66 74H1306.34C1308.36 74 1310 72.357 1310 70.3379V52.6621C1310 50.643 1308.36 49 1306.34 49ZM1297.55 68.043C1293.91 68.043 1290.96 65.086 1290.96 61.4512C1290.96 57.8163 1293.91 54.8594 1297.55 54.8594C1301.18 54.8594 1304.14 57.8163 1304.14 61.4512C1304.14 65.086 1301.18 68.043 1297.55 68.043ZM1304.87 56.3242C1303.66 56.3242 1302.68 55.3385 1302.68 54.1269C1302.68 52.9154 1303.66 51.9297 1304.87 51.9297C1306.08 51.9297 1307.07 52.9154 1307.07 54.1269C1307.07 55.3385 1306.08 56.3242 1304.87 56.3242Z" fill="#198C36"/>
<path d="M1304.87 53.3945C1304.47 53.3945 1304.14 53.7228 1304.14 54.127C1304.14 54.5311 1304.47 54.8594 1304.87 54.8594C1305.28 54.8594 1305.61 54.5311 1305.61 54.127C1305.61 53.7228 1305.28 53.3945 1304.87 53.3945Z" fill="#198C36"/>
<path d="M1297.55 56.3242C1294.72 56.3242 1292.42 58.6245 1292.42 61.4512C1292.42 64.2779 1294.72 66.5781 1297.55 66.5781C1300.38 66.5781 1302.68 64.2779 1302.68 61.4512C1302.68 58.6245 1300.38 56.3242 1297.55 56.3242Z" fill="#198C36"/>
</g>
<rect x="130" y="123.203" width="1180" height="1" fill="#F2EFE6"/>
<defs>
<clipPath id="clip0_1_1437">
<rect width="13" height="24" fill="white" transform="translate(1170 50)"/>
</clipPath>
<clipPath id="clip1_1_1437">
<rect width="30" height="28" fill="white" transform="translate(1241 46)"/>
</clipPath>
<clipPath id="clip2_1_1437">
<rect width="25" height="25" fill="white" transform="translate(1285 49)"/>
</clipPath>
</defs>
</svg>
