<svg width="1440" height="568" viewBox="0 0 1440 568" fill="none" xmlns="http://www.w3.org/2000/svg">
<path d="M0 0H1440V568H0V0Z" fill="#163A24"/>
<g clip-path="url(#clip0_1_494)">
<path d="M328.938 190.58C336.85 195.293 335.366 208.692 335.769 225.988C336 235.649 336.043 239.861 335.957 248.733C335.884 255.472 336.49 267.319 334.443 272.979C332.353 278.744 326.675 280.139 323.086 281.482C318.561 283.167 313.978 284.325 309.366 284.773C306.642 285.036 303.918 285.299 301.208 285.72C299.608 285.983 296.985 285.694 295.559 287.326C293.829 289.327 292.633 298.462 290.615 303.49C288.814 307.965 286.464 312.177 283.726 314.652C282.962 315.336 282.126 315.915 281.276 315.678C278.61 314.994 278.811 306.728 278.797 303.147C278.783 300.147 278.869 296.961 279.201 293.934C279.532 290.906 278.163 288.168 276.477 288.432L269.977 289.458C257.51 289.827 254.599 288.985 243.371 284.878C238.803 283.219 236.179 277.138 235.934 268.398C235.617 256.973 235.891 245.39 235.862 233.965C235.848 224.619 235.041 214.063 237.794 205.638C240.691 196.767 246.931 194.082 252.523 192.555C266.59 188.843 280.757 187.184 294.982 187C294.982 187 322.25 186.605 328.938 190.58Z" fill="#F7BC28"/>
<path d="M258.029 231.095C277.125 231.99 296.308 231.253 315.361 228.752C318.114 228.383 318.143 220.486 315.361 220.855C296.308 223.355 277.125 224.093 258.029 223.198C255.247 223.066 255.247 230.963 258.029 231.095Z" fill="white"/>
<path d="M254.757 253.314C267.109 253.314 279.46 252.261 291.812 251.998C301.367 251.813 310.879 252.656 320.406 251.155C323.158 250.734 323.187 242.836 320.406 243.257C310.879 244.732 301.367 243.889 291.812 244.1C279.46 244.363 267.109 245.416 254.757 245.416C251.976 245.416 251.961 253.314 254.757 253.314Z" fill="white"/>
<path d="M235.214 323.839C235.358 322.26 234.796 320.707 233.931 320.391C228.627 318.469 223.67 313.888 220.557 305.385C215.224 290.801 224.779 275.901 231.582 271.004C238.572 265.976 246.902 266.555 253.374 273.584C253.792 274.032 254.181 274.506 254.57 275.032C259.225 281.219 263.116 293.407 261.877 303.595C261.416 307.36 260.277 310.835 258.202 313.651C254.339 318.916 249.093 320.864 244.092 321.365C243.126 321.47 242.218 322.207 241.584 323.523C240.532 325.682 238.774 329.078 237.16 331.421C236.093 332.974 234.537 331.237 234.767 328.789L235.214 323.839Z" fill="#39B55D"/>
<path d="M231.769 291.617C238.067 291.617 244.366 291.617 250.664 291.617C252.984 291.617 252.984 285.036 250.664 285.036C244.366 285.036 238.067 285.036 231.769 285.036C229.449 285.036 229.449 291.617 231.769 291.617Z" fill="white"/>
<path d="M230.847 305.622C237.376 305.622 243.904 305.622 250.433 305.622C252.754 305.622 252.754 299.041 250.433 299.041C243.904 299.041 237.376 299.041 230.847 299.041C228.526 299.041 228.526 305.622 230.847 305.622Z" fill="white"/>
</g>
<g clip-path="url(#clip1_1_494)">
<path d="M891.766 332H844.234C839.133 332 835 324.464 835 315.163V212.642C835 203.34 839.133 195.804 844.234 195.804H891.766C896.867 195.804 901 203.34 901 212.642V315.163C901 324.464 896.867 332 891.766 332Z" fill="#F7BC28"/>
<path d="M890.525 240.23H845.475C843.328 240.23 841.578 237.039 841.578 233.123V213.343C841.578 209.428 843.328 206.237 845.475 206.237H890.525C892.672 206.237 894.422 209.428 894.422 213.343V233.123C894.422 237.039 892.672 240.23 890.525 240.23Z" fill="#E48929"/>
<path d="M890.525 279.45H845.475C843.663 279.45 842.198 276.779 842.198 273.475V253.695C842.198 250.391 843.663 247.721 845.475 247.721H890.525C892.337 247.721 893.802 250.391 893.802 253.695V273.475C893.802 276.779 892.337 279.45 890.525 279.45Z" fill="#E48929"/>
<path d="M890.525 320.933H845.475C843.328 320.933 841.578 317.742 841.578 313.827V294.047C841.578 290.132 843.328 286.941 845.475 286.941H890.525C892.672 286.941 894.422 290.132 894.422 294.047V313.827C894.422 317.742 892.672 320.933 890.525 320.933Z" fill="#E48929"/>
<path d="M868.348 269.605C870.171 269.605 871.649 266.91 871.649 263.585C871.649 260.26 870.171 257.565 868.348 257.565C866.524 257.565 865.046 260.26 865.046 263.585C865.046 266.91 866.524 269.605 868.348 269.605Z" fill="#F7BC28"/>
<path d="M868.348 309.957C870.171 309.957 871.649 307.262 871.649 303.937C871.649 300.612 870.171 297.917 868.348 297.917C866.524 297.917 865.046 300.612 865.046 303.937C865.046 307.262 866.524 309.957 868.348 309.957Z" fill="#F7BC28"/>
<path d="M845.263 197.637C846.902 214.158 847.944 231.313 849.682 247.72H882.433C879.753 218.978 878.363 208.613 876.824 190.169C876.65 188.177 875.645 186.774 874.553 187.023L847.013 193.269C845.847 193.541 845.052 195.532 845.263 197.637Z" fill="#FBFAF7"/>
<path d="M853.541 211.691C859.734 212.076 865.915 211.578 872.071 210.197C873.051 209.971 873.063 207.142 872.071 207.368C865.927 208.749 859.734 209.247 853.541 208.862C852.549 208.817 852.549 211.646 853.541 211.691Z" fill="#194429"/>
<path d="M854.783 223.007C860.976 223.392 867.156 222.894 873.312 221.513C874.292 221.287 874.305 218.458 873.312 218.684C867.169 220.065 860.976 220.563 854.783 220.178C853.79 220.133 853.79 222.962 854.783 223.007Z" fill="#194429"/>
<path d="M856.023 234.323C862.216 234.708 868.397 234.21 874.553 232.829C875.533 232.603 875.546 229.774 874.553 230C868.409 231.381 862.216 231.879 856.023 231.494C855.031 231.449 855.031 234.278 856.023 234.323Z" fill="#194429"/>
</g>
<g clip-path="url(#clip2_1_494)">
<path d="M538.869 217.909C535.489 221.135 533.335 227.038 533.179 233.55C532.644 255.572 532.137 302.112 550.556 325.735L566.343 343.336C569.944 347.351 574.6 347.554 578.337 343.886C583.221 339.094 589.76 331.877 593.539 324.385C593.71 324.038 593.889 323.716 594.074 323.393C596.47 319.319 614.51 286.722 611.708 232.976C611.387 226.823 609.298 221.302 606.103 218.207L578.151 191.167C574.671 187.798 570.386 187.774 566.899 191.119L538.869 217.909Z" fill="#F7BC28"/>
<path d="M547.553 230.227C545.051 232.616 543.453 237.002 543.332 241.829C542.933 258.163 542.562 292.671 556.217 310.2L567.926 323.26C570.6 326.236 574.051 326.391 576.817 323.667C580.44 320.118 585.289 314.765 588.091 309.209C588.219 308.958 588.348 308.707 588.49 308.48C590.266 305.457 603.593 281.045 601.568 241.423C601.439 238.854 597.632 231.171 596.334 229.426L576.689 210.392C574.108 207.894 570.935 207.882 568.346 210.356L547.553 230.227Z" fill="#E48929"/>
<path d="M572.497 208.504V267.567H600.741C600.741 267.567 602.752 251.089 601.575 241.423C601.575 241.423 601.247 234.779 596.341 229.426L576.689 210.392C576.689 210.392 574.693 208.384 572.497 208.504Z" fill="#FBFAF7"/>
<path d="M572.496 267.567L572.489 325.591C572.489 325.591 570.222 325.806 567.377 322.627L557.964 312.136C557.964 312.136 549.985 304.166 547.39 290.975C547.39 290.975 544.117 278.847 543.667 266.479L572.496 267.567Z" fill="#FBFAF7"/>
</g>
<g clip-path="url(#clip3_1_494)">
<path d="M1140.92 208.494C1131.73 235.124 1123.94 263.271 1117.7 292.459C1116.26 299.182 1114.88 306.171 1115.01 313.353C1115.14 320.535 1117.09 328.071 1120.76 331.177C1122.84 332.941 1125.22 333.135 1127.52 333.241C1148.91 334.159 1170.37 329.341 1190.94 318.982C1199.25 314.8 1208.9 306.453 1209.34 291.224C1209.64 280.759 1205.28 271.988 1202.59 262.635C1198.21 247.406 1198.03 228.771 1192.37 214.918C1187.25 202.371 1180.61 189.277 1171.89 187.935C1166.74 187.141 1161.1 186.083 1155.41 188.43C1149.16 190.988 1143.91 198.471 1140.92 208.494Z" fill="#F7BC28"/>
<path d="M1147.5 211.371C1143.73 230.5 1142.18 251.288 1143 271.724C1143.4 281.571 1144.41 291.7 1147.4 299.694C1151.23 309.947 1158.1 315.259 1164.57 313.847C1171.04 312.435 1176.96 304.724 1180.54 294.118C1185.77 278.641 1186 258.824 1185.3 240.33C1184.67 223.883 1182.59 205.053 1175.07 197.5C1169.16 191.571 1162.02 194.924 1155.61 198.4L1147.5 211.371Z" fill="#FFC9A0"/>
<path d="M1138.41 251.606C1147.31 251.677 1157.49 244.494 1159.73 240.735C1166.48 229.353 1167.16 205.794 1166.96 190.141L1145.81 203.518L1138.56 227.553L1138.41 251.606Z" fill="#F7BC28"/>
<path d="M1162.17 190.124C1162.17 190.124 1171.18 235.388 1190.11 241.883L1187.13 222.4L1179.63 197.024L1162.17 190.124Z" fill="#F7BC28"/>
<path d="M1173.12 239.112C1172.62 238.971 1172.13 239.429 1171.91 240.241C1171.86 240.435 1171.8 240.629 1171.76 240.841C1171.62 241.512 1171.63 242.412 1171.99 242.747C1172.13 242.888 1172.3 242.888 1172.46 242.888C1174.14 242.941 1175.81 243.347 1177.45 244.035C1178.28 244.388 1179.1 244.812 1179.91 245.324C1180.11 245.447 1180.86 246.188 1181.04 246.065C1181.38 245.853 1181.21 244.776 1181.07 244.388C1180.88 243.876 1180.57 243.541 1180.28 243.224L1180.2 243.135C1178.55 241.353 1176.71 240.135 1174.8 239.606L1173.12 239.112Z" fill="#F7BC28"/>
<path d="M1157.56 195.753C1150.99 195.771 1144.24 214.371 1141.92 223.706C1139.33 234.136 1134.75 245.306 1131.6 255.224C1128.52 264.93 1125.46 274.724 1123.12 285.083C1121.96 290.2 1120.99 295.459 1120.31 300.841C1119.7 305.606 1119.82 306.753 1119.46 311.677C1119.05 317.271 1119.18 323.818 1122.36 324.859C1125.48 325.883 1131.22 325.636 1134.34 326.359C1134.92 326.5 1135.18 324.912 1134.59 324.771C1130.07 323.694 1122.59 327.118 1120.8 316.883C1119.98 312.188 1120.52 307.018 1121.09 302.341C1121.7 297.294 1127.82 278.059 1128.85 273.241C1133.08 253.53 1136.24 250.283 1141.34 231.294C1144.19 220.688 1147.27 208.494 1152.66 201.118C1153.5 199.953 1154.43 198.983 1155.45 198.436C1156.32 197.977 1157.69 197.377 1158.44 197.024C1159.39 196.547 1159.17 195.753 1157.56 195.753Z" fill="white"/>
<path d="M1148.05 322.547C1147.9 322.547 1147.76 322.53 1147.61 322.512C1144.71 322.018 1140.08 320.659 1137.47 318.771C1135.12 317.077 1132.54 314.659 1131.21 310.689C1128.92 303.894 1129.3 293.218 1132.37 287.324C1132.77 286.547 1132.92 284.659 1132.51 285.436C1129.86 290.536 1128.45 296.13 1128.92 302.836C1129.24 307.336 1129.13 311.747 1130.5 314.059C1132.18 316.9 1135.61 319.283 1137.76 320.747C1140.37 322.512 1143.87 323.147 1146.64 323.589C1147.23 323.694 1150.06 323.589 1149.69 322.565H1148.05V322.547Z" fill="white"/>
<path d="M1138.26 275.871C1136.89 282.453 1135.35 293.289 1136.22 298.671C1136.73 301.794 1140.1 306.524 1142.79 310.477C1143.25 311.147 1144.25 311.641 1143.79 310.953C1141.23 307.194 1138.39 303.012 1137.5 297.083C1136.49 290.394 1137.57 281.606 1138.89 275.306C1139.09 274.318 1138.47 274.883 1138.26 275.871Z" fill="white"/>
<path d="M1140.99 244.741C1144.32 243.877 1147.46 241.741 1150.52 239.341C1153.35 237.135 1157.89 233.412 1160.16 229.6C1162.41 225.788 1162.9 219.259 1163.91 214.124C1165.01 208.583 1164.83 205.494 1164.85 199.635C1164.85 198.577 1164.19 195.735 1164.19 196.794C1164.19 213.294 1162.17 222.753 1157.59 230.147C1155.42 233.641 1152.7 235.865 1150.04 237.93C1147.05 240.259 1143.98 242.324 1140.73 243.153C1140.15 243.312 1140.4 244.9 1140.99 244.741Z" fill="white"/>
<path d="M1147.2 226.988C1147.99 221.8 1151.64 216.577 1153.74 212.624C1156.03 208.335 1156.53 206.888 1159.31 203.677C1159.81 203.094 1160.29 200.482 1159.79 201.065C1156.81 204.506 1152.97 209.677 1150.58 214.335C1148.45 218.482 1147.1 222.877 1146.91 225.577C1146.84 226.618 1146.53 229.371 1146.9 229.618L1147.2 226.988Z" fill="white"/>
<path d="M1154.82 221.941C1157.74 215.412 1161.05 207.33 1160.55 202C1160.45 200.977 1159.74 200.518 1159.65 201.559C1159 209.765 1155.95 217.953 1153.13 224.288C1152.76 225.1 1153.53 224.836 1153.9 224.006L1154.82 221.941Z" fill="white"/>
<path d="M1192.22 242.094C1181.72 237.153 1173.31 221.412 1171.12 202.636C1170.97 202.989 1170.82 203.324 1170.67 203.677C1177.34 202.6 1183.2 210.03 1187.02 219.1C1191.41 229.53 1193.21 242.465 1195.6 254.536C1196.84 260.783 1198.37 266.677 1200.04 272.606C1201.68 278.43 1203.37 284.8 1202.93 291.471C1202.2 302.624 1195.86 308.977 1190.45 312.383C1182.13 317.624 1173.1 319.953 1164.29 320.094C1163.69 320.112 1162.31 322.565 1162.9 322.565C1171.33 322.424 1178.65 320.677 1186.69 316.177C1192.21 313.089 1201.63 305.394 1203.81 295.194C1205.1 289.177 1205.24 283.883 1203.89 278.112C1202.37 271.583 1198.89 265.389 1197.45 258.789C1194.67 246.012 1191.44 227.024 1189.81 222.418C1184.92 208.512 1178.23 200.818 1170.68 202.036C1170.37 202.089 1170.17 202.512 1170.23 203.077C1173.4 229.971 1181.18 238.6 1191.98 243.665C1192.56 243.947 1192.8 242.377 1192.22 242.094Z" fill="white"/>
<path d="M1162.75 314.747C1169.31 315.718 1179.89 314.641 1186.16 310.547C1191.24 307.23 1192.37 302.324 1194.61 293.359C1195.86 288.347 1196.73 288.824 1194.55 277.547C1194.36 276.541 1193.39 276.206 1193.7 277.106C1196.69 285.929 1192.81 297.912 1188.93 303.559C1184.56 309.93 1178.93 312.753 1173.36 313.477C1169.83 313.935 1166.28 313.635 1162.76 313.106C1162.15 313.018 1162.15 314.659 1162.75 314.747Z" fill="white"/>
<path d="M1198.28 296.659C1200.97 290.465 1199.98 286.247 1199.01 278.836C1197.87 270.153 1194.94 262.6 1192.25 255.224C1191.93 254.342 1191.12 255.153 1191.45 256.053C1194.01 263.059 1196.76 270.136 1197.98 278.289C1199.07 285.577 1199.35 291.542 1197 299.042C1196.71 299.959 1196.55 301.547 1196.91 300.718L1198.28 296.659Z" fill="white"/>
<path d="M1179.5 301.794C1183.64 299.677 1187.35 290.43 1189.03 283.547C1191.08 275.094 1188.7 270.1 1187.55 261.33C1187.41 260.306 1186.52 260.73 1186.65 261.771C1187.74 270.047 1188.05 279.03 1186.2 287.041C1184.67 293.659 1181.38 298.106 1177.69 301.336C1177.34 301.636 1176.63 302.959 1176.63 302.959L1179.5 301.794Z" fill="white"/>
<path d="M1177.74 216.365C1179.38 217.653 1181.24 220.036 1182.65 222.612C1184.11 225.294 1187.44 232.336 1188.68 235.336C1191.08 241.194 1191.05 243.418 1192.5 250.177C1192.71 251.147 1193.61 250.724 1193.4 249.736C1191.85 242.483 1189.76 235.636 1187.14 229.424C1185.87 226.406 1185.95 225.083 1184.45 222.4C1183.01 219.824 1181.11 217.106 1179.1 216.065C1178.52 215.765 1177.16 216.065 1177.74 216.365Z" fill="white"/>
<path d="M1144.65 250.635C1140.68 251.783 1139.25 251.694 1135.61 254.941C1133 257.271 1130.25 260.659 1129.83 265.777C1129.29 272.359 1133.02 277.83 1136.72 279.1C1140.42 280.371 1144.24 278.941 1148 279.471" fill="#FFC9A0"/>
<path d="M1184.25 240.135C1187.61 239.535 1191.03 240.33 1194.19 242.43C1197.35 244.53 1200.03 250.177 1199.46 256.035C1198.84 262.353 1195.04 265.865 1191.62 268C1188.41 269.994 1185.12 271.6 1181.79 272.8" fill="#FFC9A0"/>
<path d="M1155.87 311.218L1158.6 336.365H1166.96L1169.98 303.806L1155.87 311.218Z" fill="#FFC9A0"/>
<path d="M1147.69 289.247C1147.57 289.441 1147.39 289.441 1147.27 289.247C1146.32 287.765 1145.21 286.618 1144.22 285.206C1143.16 283.688 1142.2 281.747 1141.96 279.382C1141.51 274.935 1144.09 271.918 1146.18 274.776C1146.77 275.571 1147.23 276.629 1147.66 277.706C1147.7 277.812 1147.81 277.759 1147.8 277.618C1147.72 276.382 1147.98 275.076 1148.44 274.124C1149.23 272.447 1150.91 271.018 1152.18 271.441C1153.97 272.024 1153.93 275.676 1153.44 278.076C1152.85 280.971 1151.16 283.529 1149.92 285.559L1147.69 289.247Z" fill="#F1673C"/>
<path d="M1180.54 286.547C1180.41 286.724 1180.23 286.671 1180.13 286.459C1179.28 284.8 1178.26 283.441 1177.37 281.835C1176.41 280.124 1175.59 277.988 1175.5 275.588C1175.34 271.071 1178.1 268.618 1180 271.865C1180.53 272.783 1180.92 273.912 1181.28 275.077C1181.32 275.2 1181.42 275.147 1181.42 275.024C1181.42 273.771 1181.77 272.535 1182.29 271.671C1183.19 270.171 1184.94 269.094 1186.18 269.765C1187.92 270.718 1187.64 274.318 1187 276.612C1186.22 279.365 1184.38 281.553 1183.02 283.335L1180.54 286.547Z" fill="#F1673C"/>
<path d="M1168.84 295.124C1172.03 292.759 1174.53 288.206 1175.74 282.489C1175.86 281.906 1175.6 281.236 1175.29 281.077C1174.93 280.9 1174.61 281.289 1174.49 281.871C1173.46 286.759 1171.23 290.889 1168.5 292.9C1168.18 293.147 1167.94 293.659 1168.05 294.312C1168.12 294.859 1168.51 295.371 1168.84 295.124Z" fill="#010101"/>
<path d="M1169.36 253.989C1169.92 258.189 1172.18 261.753 1174.73 260.73C1177.09 259.777 1178.12 255.347 1178.8 251.712C1178.48 251.942 1178.16 252.171 1177.85 252.4C1179.39 253.795 1180.93 255.171 1182.47 256.565C1183.21 257.236 1183.87 255.259 1183.13 254.589C1181.59 253.195 1180.05 251.818 1178.51 250.424C1178.12 250.071 1177.69 250.371 1177.56 251.112C1177.06 253.777 1176.38 257.324 1174.72 258.365C1172.76 259.6 1171.05 256.53 1170.63 253.389C1170.42 251.942 1169.16 252.559 1169.36 253.989Z" fill="#010101"/>
<path d="M1176.89 256.706C1176.95 256.777 1177 256.847 1177.05 256.918C1177.14 257.041 1177.07 256.953 1177.02 256.882C1177.06 256.935 1177.09 256.988 1177.13 257.041C1177.26 257.235 1177.4 257.412 1177.53 257.606C1177.84 258.047 1178.14 258.506 1178.45 258.947C1179.03 259.794 1179.6 260.659 1180.21 261.435C1180.49 261.788 1180.95 261.541 1181.1 261.029C1181.28 260.429 1181.16 259.829 1180.87 259.459C1180.81 259.388 1180.76 259.318 1180.71 259.247C1180.62 259.124 1180.69 259.212 1180.74 259.282C1180.7 259.229 1180.67 259.177 1180.63 259.124C1180.5 258.929 1180.36 258.753 1180.23 258.559C1179.92 258.118 1179.62 257.659 1179.31 257.218C1178.73 256.371 1178.16 255.506 1177.55 254.729C1177.27 254.377 1176.81 254.624 1176.66 255.135C1176.48 255.718 1176.6 256.318 1176.89 256.706Z" fill="#010101"/>
<path d="M1157.97 256.936C1157.55 260.077 1155.84 263.147 1153.88 261.912C1152.22 260.871 1151.54 257.324 1151.04 254.659C1150.9 253.936 1150.47 253.618 1150.09 253.971C1148.55 255.365 1147.01 256.742 1145.47 258.136C1144.72 258.806 1145.38 260.783 1146.13 260.112C1147.67 258.718 1149.21 257.342 1150.75 255.947C1150.43 255.718 1150.11 255.489 1149.8 255.259C1150.48 258.895 1151.51 263.306 1153.87 264.277C1156.42 265.318 1158.68 261.736 1159.24 257.536C1159.42 256.124 1158.16 255.506 1157.97 256.936Z" fill="#010101"/>
<path d="M1151.03 258.277C1150.42 259.053 1149.85 259.918 1149.27 260.765C1148.96 261.206 1148.66 261.665 1148.35 262.106C1148.22 262.3 1148.09 262.477 1147.95 262.671C1147.92 262.724 1147.89 262.759 1147.85 262.812C1147.81 262.865 1147.99 262.635 1147.86 262.794C1147.81 262.865 1147.75 262.935 1147.7 263.006C1147.43 263.359 1147.26 264.012 1147.47 264.577C1147.65 265.053 1148.07 265.371 1148.36 264.983C1148.97 264.206 1149.54 263.341 1150.12 262.494C1150.43 262.053 1150.73 261.594 1151.04 261.153C1151.17 260.959 1151.3 260.783 1151.44 260.588C1151.47 260.535 1151.5 260.5 1151.54 260.447C1151.58 260.394 1151.4 260.624 1151.53 260.465C1151.58 260.394 1151.64 260.324 1151.69 260.253C1151.96 259.9 1152.13 259.247 1151.92 258.683C1151.75 258.206 1151.33 257.906 1151.03 258.277Z" fill="#010101"/>
<path d="M1188.58 248.377C1189.76 248.059 1191.02 248.447 1192.17 248.959C1193.31 249.471 1194.48 250.124 1195.15 251.977C1195.5 252.947 1195.63 254.024 1195.4 255.136C1195.19 256.159 1194.8 257.13 1194.38 257.924C1193.64 259.3 1192.68 260.2 1191.71 260.924C1190.55 261.788 1189.34 262.441 1188.19 263.341C1187.64 263.765 1188.12 265.177 1188.66 264.753C1190.94 262.971 1193.64 262.124 1195.31 258.559C1196.24 256.583 1196.82 254.165 1196.14 251.694C1195.51 249.436 1194.29 248.324 1192.98 247.636C1191.5 246.859 1189.89 246.383 1188.35 246.788C1187.74 246.947 1187.99 248.536 1188.58 248.377Z" fill="#010101"/>
<path d="M1189.4 257.8C1189.76 257.677 1190.12 257.377 1190.44 257.094C1190.89 256.724 1191.32 256.265 1191.71 255.718C1192.06 255.224 1192.39 254.553 1192.42 253.741C1192.45 252.665 1191.89 252.029 1191.39 251.659C1190.68 251.147 1189.89 251.059 1189.13 250.935C1188.89 250.9 1188.66 251.341 1188.67 251.747C1188.68 252.224 1188.87 252.524 1189.13 252.559C1189.26 252.577 1189.39 252.594 1189.52 252.612C1189.6 252.629 1189.67 252.629 1189.75 252.647C1189.78 252.647 1189.81 252.665 1189.83 252.665C1189.85 252.665 1189.99 252.7 1189.94 252.682C1189.87 252.665 1190.01 252.7 1190.01 252.7C1190.05 252.718 1190.1 252.718 1190.14 252.735C1190.21 252.753 1190.29 252.771 1190.36 252.806C1190.52 252.859 1190.67 252.929 1190.83 253C1190.9 253.035 1190.96 253.071 1191.03 253.124C1191.06 253.141 1191.08 253.159 1191.11 253.177C1191.01 253.106 1191.13 253.194 1191.15 253.212C1191.21 253.265 1191.27 253.318 1191.32 253.371C1191.35 253.406 1191.37 253.424 1191.4 253.459C1191.51 253.582 1191.36 253.388 1191.41 253.477C1191.44 253.529 1191.47 253.582 1191.49 253.618C1191.55 253.706 1191.43 253.441 1191.47 253.565C1191.48 253.582 1191.48 253.6 1191.49 253.618C1191.55 253.777 1191.46 253.424 1191.49 253.6C1191.48 253.424 1191.53 253.829 1191.49 253.6C1191.49 253.618 1191.48 253.688 1191.49 253.688C1191.48 253.671 1191.52 253.477 1191.5 253.565C1191.49 253.618 1191.48 253.671 1191.47 253.724C1191.45 253.865 1191.53 253.529 1191.49 253.653C1191.48 253.671 1191.47 253.706 1191.47 253.741C1191.45 253.812 1191.43 253.865 1191.41 253.918C1191.36 254.041 1191.49 253.759 1191.43 253.882C1191.42 253.9 1191.4 253.935 1191.39 253.971C1191.36 254.024 1191.33 254.077 1191.3 254.129C1191.23 254.253 1191.15 254.377 1191.07 254.5C1191.05 254.535 1191.01 254.606 1191.1 254.465C1191.08 254.5 1191.05 254.535 1191.03 254.553C1190.99 254.606 1190.95 254.659 1190.91 254.712C1190.82 254.818 1190.72 254.924 1190.63 255.029C1190.45 255.224 1190.26 255.4 1190.07 255.559C1189.97 255.647 1189.87 255.735 1189.76 255.806C1189.75 255.824 1189.73 255.841 1189.71 255.841C1189.85 255.771 1189.74 255.824 1189.7 255.841C1189.66 255.877 1189.61 255.912 1189.57 255.929C1189.44 256.018 1189.3 256.106 1189.17 256.159C1188.93 256.247 1188.77 256.777 1188.85 257.165C1188.91 257.694 1189.15 257.888 1189.4 257.8Z" fill="#010101"/>
<path d="M1140.87 273.047C1139.25 273.4 1137.62 273.171 1136.05 272.324C1134.93 271.724 1132.75 270.524 1133.05 267.806C1133.19 266.536 1133.71 265.459 1134.21 264.577C1134.72 263.677 1135.27 262.847 1135.87 262.142C1137.1 260.659 1138.47 259.636 1139.92 259.071C1140.5 258.842 1140.26 257.271 1139.67 257.483C1137.14 258.471 1134.59 260.924 1132.97 264.542C1132.19 266.289 1131.69 268.689 1132.52 270.665C1133.28 272.483 1134.76 273.365 1135.94 273.983C1137.53 274.812 1139.21 275.042 1140.85 274.689C1141.46 274.565 1141.47 272.924 1140.87 273.047Z" fill="#010101"/>
<path d="M1138.95 262.512C1138.32 262.635 1137.72 262.935 1137.15 263.412C1136.63 263.853 1136.09 264.471 1135.73 265.283C1135.32 266.183 1135.25 267.294 1135.54 268.335C1135.79 269.253 1136.28 269.924 1136.83 270.224C1137.55 270.63 1138.32 270.418 1139.05 270.224C1139.3 270.153 1139.44 269.606 1139.37 269.218C1139.3 268.741 1139.05 268.583 1138.8 268.653C1138.2 268.812 1137.54 268.988 1136.96 268.583C1137.01 268.618 1136.86 268.494 1136.85 268.477C1136.79 268.424 1136.74 268.353 1136.68 268.283C1136.71 268.318 1136.7 268.3 1136.66 268.247C1136.64 268.212 1136.61 268.159 1136.59 268.124C1136.58 268.106 1136.47 267.894 1136.5 267.965C1136.46 267.877 1136.43 267.771 1136.39 267.683C1136.37 267.63 1136.36 267.577 1136.35 267.524C1136.36 267.594 1136.36 267.577 1136.34 267.488C1136.32 267.383 1136.3 267.277 1136.29 267.171C1136.3 267.312 1136.29 267.012 1136.29 266.977C1136.29 266.871 1136.29 266.871 1136.29 266.941C1136.3 266.888 1136.3 266.835 1136.31 266.783C1136.32 266.694 1136.33 266.659 1136.37 266.553C1136.43 266.359 1136.51 266.218 1136.61 266.041C1136.82 265.688 1137.06 265.406 1137.31 265.159C1137.81 264.647 1138.4 264.294 1138.96 264.188C1139.21 264.135 1139.42 263.853 1139.42 263.377C1139.41 262.935 1139.2 262.477 1138.95 262.512Z" fill="#010101"/>
<path d="M1164.59 265.3C1165.4 268.971 1166.32 272.641 1166.98 276.312C1167.14 277.212 1166.75 278.112 1166.22 278.13C1165.28 278.147 1164.17 278.165 1163.25 278.165C1162.78 278.165 1162.41 277.459 1162.45 276.612L1163.05 265.653C1163.13 264.171 1164.28 263.906 1164.59 265.3Z" fill="#E48929"/>
<path d="M1169.25 311.659C1169.25 311.659 1162.7 316.3 1155.86 311.218L1156.38 315.982L1168.14 323.588L1169.25 311.659Z" fill="#EFB086"/>
<path d="M1164.81 199.071C1168.13 198.912 1171.12 196.776 1174.41 197.765C1176.69 198.453 1179.37 200.535 1181.23 202.794C1185.08 207.471 1188 212.394 1191.01 218.765C1191.42 219.647 1195.3 229.918 1192.06 218.694C1189.85 211.071 1184.67 205.565 1180.68 200.747C1178.78 198.453 1176.97 196.741 1174.67 196.053C1171.29 195.029 1164.11 194.2 1164.14 195.329C1164.19 196.776 1164.19 198.082 1164.19 198.082L1164.81 199.071Z" fill="white"/>
</g>
<defs>
<clipPath id="clip0_1_494">
<rect width="117" height="145" fill="white" transform="translate(219 187)"/>
</clipPath>
<clipPath id="clip1_1_494">
<rect width="66" height="145" fill="white" transform="translate(835 187)"/>
</clipPath>
<clipPath id="clip2_1_494">
<rect width="79" height="160" fill="white" transform="translate(533 187)"/>
</clipPath>
<clipPath id="clip3_1_494">
<rect width="95" height="150" fill="white" transform="translate(1115 187)"/>
</clipPath>
</defs>
</svg>
