<svg width="492" height="424" viewBox="0 0 492 424" fill="none" xmlns="http://www.w3.org/2000/svg">
<g clip-path="url(#clip0_18610_99)">
<path d="M370.527 64.5C477.369 159.402 493.849 240 488.704 268.446C465.873 395.571 365.865 418.795 335.959 420.482C296.406 422.652 232.896 419.759 191.092 420.884C76.6941 427.393 30.3078 363.187 21.4647 330.321C-33.202 195.804 43.4118 92.2232 88.5922 57.2678C204.598 -43.4197 324.945 20.1428 370.527 64.5Z" fill="#F7BC28"/>
<path d="M186.429 166.714C192.057 154.42 199.051 142.848 205.965 131.277L263.847 35.2499C269.073 26.6517 277.112 16.7678 286.437 17.5714C287.724 17.7321 288.769 18.8571 288.608 20.2231C288.608 20.3839 288.527 20.5446 288.527 20.7856C283.865 34.4464 276.067 46.9017 265.857 57.1071C263.445 59.4374 260.631 61.0446 260.229 62.2499C259.988 63.0535 256.853 71.7321 255.727 75.3481C242.543 116.17 230.082 149.437 224.133 163.661" fill="#FFC9A0"/>
<path d="M229.68 157.152C223.169 176.839 221.078 187.205 210.949 192.83L157.327 213C166.01 196.446 176.863 173.464 186.912 157.714L229.68 157.152Z" fill="#307549"/>
<path d="M177.827 167.839C195.112 167.196 212.396 167.437 229.6 168.643C230.886 168.643 232.012 167.518 232.012 166.232C231.931 164.946 230.886 163.902 229.6 163.821C212.396 162.616 195.112 162.375 177.827 163.018C174.692 163.098 174.692 168 177.827 167.839Z" fill="#153A23"/>
<path d="M183.455 204C180.963 192.991 181.284 178.687 188.922 166.634C190.61 163.982 187.957 162.214 186.51 164.946C179.918 177.402 176.139 179.732 175.978 205.446C175.978 208.58 179.274 208.42 179.194 205.286L183.455 204Z" fill="#153A23"/>
<path d="M193.665 197.973C197.684 187.446 201.543 176.196 206.206 165.911C206.769 164.705 207.01 164.223 205.723 163.42C204.518 162.777 203.071 163.179 202.347 164.304C195.835 176.036 194.469 192.268 188.922 196.687C187.876 197.491 189.404 199.339 190.61 199.741C191.896 199.982 193.263 199.259 193.665 197.973Z" fill="#153A23"/>
<path d="M201.945 199.018C203.553 196.687 206.125 195.241 208.216 193.473C210.547 191.545 209.422 188.571 211.431 186.321C214.969 182.464 218.265 177.884 221.239 168C222.123 164.946 216.094 163.58 215.531 166.714C213.843 175.955 212.155 178.768 209.261 184.232C207.974 186.723 206.125 188.893 203.955 190.58C201.623 192.429 199.372 194.036 197.684 196.527C197.041 197.732 197.443 199.179 198.569 199.902C199.774 200.545 201.302 200.143 201.945 199.018Z" fill="#153A23"/>
<path d="M160.302 247.875C134.255 248.437 87.3863 239.036 61.3392 238.875C44.9392 238.714 33.6039 242.652 12.5412 229.795C10.2902 228.509 8.2804 226.902 6.67256 224.893C5.70785 223.607 6.91373 221.679 8.36079 222.241C22.9922 228.509 40.598 218.545 55.551 224.571C66.4843 228.991 127.663 223.848 162.875 216.054" fill="#FFC9A0"/>
<path d="M422.139 120.107C407.99 147.991 392.796 175.393 376.637 202.232C366.347 191.384 363.212 188.973 350.429 177L351.475 237.027L373.422 249.482C377.682 251.893 382.184 254.384 387.088 254.223C397.459 253.902 403.569 242.652 407.186 232.929C419.486 199.821 428.812 160.768 434.922 125.973L422.139 120.107Z" fill="#FFC9A0"/>
<path d="M277.755 274.473C281.533 319.795 283.302 351.536 285.874 407.384C290.135 407.143 298.335 407.545 302.435 408.589C307.42 371.143 313.931 312.804 318.755 273.589L277.755 274.473Z" fill="#FFC9A0"/>
<path d="M162.473 206.973C201.302 188.491 242.945 171.777 284.347 160.045C284.106 190.741 283.141 208.661 283.302 247.955C245.276 248.196 207.331 246.348 169.547 242.491L162.473 206.973Z" fill="#39B55D"/>
<path d="M351.475 237.027C344.159 232.848 333.869 225.857 324.784 220.473C321.649 242.491 321.81 251.732 318.755 273.67C306.133 273.67 290.377 274.393 277.755 274.473L277.514 162.054C300.747 152.652 328.402 154.902 350.51 177L351.475 237.027Z" fill="#153A23"/>
<path d="M168.582 240.562C182.973 240.643 190.529 240.08 204.92 240.803C215.371 241.366 227.269 241.205 254.522 242.732C264.41 243.295 276.308 242.973 286.196 242.973C289.331 242.973 289.331 235.178 286.196 235.178C269.474 235.178 252.753 237.83 236.031 237.348C221.802 236.946 207.492 236.384 193.263 236.062C184.982 235.821 176.782 235.741 168.502 235.661C165.447 235.661 165.367 240.562 168.582 240.562Z" fill="#153A23"/>
<path d="M153.469 226.982C172.602 227.625 191.655 226.339 210.788 225.696C228.957 225.134 248.171 226.178 266.259 225.214C274.218 224.812 285.231 220.473 289.251 223.045C291.904 224.732 292.386 220.232 289.251 220.152C275.986 219.509 257.174 220.795 241.578 221.518C222.445 222.402 204.276 222.241 185.063 222.402C174.531 222.482 164 222.482 153.469 222.161C150.333 222 150.333 226.902 153.469 226.982Z" fill="#153A23"/>
<path d="M150.414 212.196C168.422 212.277 180.561 217.018 198.327 214.125C215.853 211.232 234.504 210.187 260.149 210.027C270.278 209.946 278.398 207.536 288.527 206.732C289.814 206.652 290.939 205.607 290.939 204.241C290.939 203.036 289.814 201.428 288.527 201.83C283.543 203.116 262.32 206.812 234.584 205.366C216.657 204.482 191.333 209.062 173.406 209.384C163.276 209.545 160.543 207.375 150.414 207.295C147.278 207.375 147.278 212.196 150.414 212.196Z" fill="#153A23"/>
<path d="M170.029 195.964C200.82 194.839 228.957 196.045 259.747 194.277C268.51 193.795 279.845 190.982 288.608 190.339C289.974 190.339 291.02 189.214 291.02 187.848C291.02 186.482 289.894 185.438 288.608 185.438C257.898 187.527 230.565 191.384 196.237 190.018C187.475 189.696 178.712 190.661 169.949 190.982C166.894 191.223 166.814 196.125 170.029 195.964Z" fill="#153A23"/>
<path d="M218.345 176.759C239.327 176.839 260.39 176.277 281.373 175.071C287.241 174.75 293.19 174.348 299.059 173.866C300.425 173.866 301.471 172.741 301.471 171.455C301.471 170.089 300.345 169.045 299.059 168.964C278.076 170.571 257.094 171.536 236.112 171.777C230.163 171.857 224.294 171.857 218.345 171.857C215.129 171.937 215.129 176.759 218.345 176.759Z" fill="#153A23"/>
<path d="M46.5471 151.205C44.2961 152.009 42.3667 153.375 41 155.304C37.8647 159.482 37.9451 168.321 43.6529 170.973C47.1902 172.661 53.702 173.304 56.6765 170.732C59.1686 168.723 61.098 166.071 62.2235 163.018" fill="#32142A"/>
<path d="M71.3079 185.438L81.7588 191.946C82.0804 192.107 82.402 192.348 82.6432 192.67C82.8843 193.071 82.9647 193.554 82.9647 194.036L83.3667 207.777C83.4471 208.259 83.3667 208.821 83.0451 209.223C82.8039 209.464 82.402 209.705 82.0804 209.786C78.1412 211.071 74.202 212.277 70.1824 213.321L71.3079 185.438Z" fill="#E48929"/>
<path d="M72.3529 174.188C72.8353 189.214 72.5941 204.321 71.549 219.348C71.4686 220.393 71.3078 221.598 70.5039 222.402C69.7 223.205 68.4137 223.205 67.2078 223.205C47.2706 223.286 27.3333 223.366 7.39609 223.286C6.83334 223.366 6.1902 223.205 5.70785 222.884C5.38628 222.482 5.14511 222 5.14511 221.438C2.81373 206.089 2.57256 190.42 4.42158 174.991L72.3529 174.188Z" fill="#32142A"/>
<path d="M87.2255 186.723C87.3059 195.562 87.2255 204.402 87.1451 213.161C87.1451 213.723 87.1451 214.366 87.0647 214.929C86.9843 215.411 86.9039 215.411 86.7431 215.411C84.8941 215.491 82.9647 215.491 81.1157 215.491C81.0353 215.491 81.0353 215.491 80.9549 215.25C80.9549 215.009 80.8745 214.687 80.8745 214.446C80.6333 205.446 80.6333 195.723 80.7941 186.643L87.2255 186.723Z" fill="#32142A"/>
<path d="M45.5824 169.768C49.0393 170.089 52.5765 170.491 55.7118 169.205C58.8471 167.92 61.6608 165.348 62.3843 162.054C63.2687 158.277 61.3392 154.179 58.0432 152.009C54.5863 149.92 50.4059 149.518 46.6275 150.964C45.5824 151.286 44.6177 151.848 43.8138 152.491C42.1255 153.937 41.402 156.187 41 158.357C40.5177 160.446 40.5981 162.616 41.0804 164.705C41.7236 166.875 43.251 168.562 45.3412 169.366" fill="#E48929"/>
<path d="M46.0647 176.116C48.8785 171.455 51.2902 166.554 53.3804 161.491L49.9235 161.411C49.5216 161.411 49.2 161.411 48.8785 161.571C48.6373 161.732 48.3961 161.973 48.2353 162.214C45.0196 166.795 43.3314 172.178 40.2765 176.839" fill="#32142A"/>
<path d="M15.2745 142.527C12.2196 143.652 9.56666 145.741 7.71764 148.393C3.53725 154.339 3.93921 166.554 11.9784 170.089C16.9627 172.259 25.9667 172.902 30.0667 169.286C33.5235 166.393 36.0961 162.616 37.4627 158.357" fill="#32142A"/>
<path d="M7.79807 162.214C6.4314 159.482 6.91376 156.268 7.39611 153.295C7.87846 150.321 8.84317 147.107 11.1745 144.938C12.3 143.973 13.6667 143.17 15.0334 142.607C20.1785 140.598 26.449 140.759 31.1118 143.652C35.7745 146.545 38.6687 152.25 37.5432 157.554C36.5785 162.134 32.8 165.83 28.3785 167.839C28.4589 167.839 12.702 172.179 7.79807 162.214Z" fill="#E48929"/>
<path d="M27.8157 148.795C27.6549 148.473 27.6549 148.071 27.7353 147.67C27.7353 147.268 27.8961 146.946 28.2177 146.705C28.3784 146.625 28.5392 146.464 28.7 146.384C29.3431 146.143 30.0667 146.143 30.6294 146.545C31.1922 146.866 31.5137 147.589 31.4333 148.232C31.2726 148.795 30.8706 149.277 30.3079 149.437C30.3079 149.437 28.3784 150 27.8157 148.795Z" fill="#32142A"/>
<path d="M30.951 156.75C30.8706 156.429 30.8706 156.027 30.951 155.625C30.951 155.223 31.1118 154.902 31.4333 154.661C31.5941 154.5 31.7549 154.42 31.9157 154.339C32.5588 154.098 33.2824 154.098 33.8451 154.5C34.4078 154.821 34.7294 155.545 34.649 156.188C34.4882 156.75 34.0863 157.232 33.5235 157.393C33.5235 157.473 31.5941 157.955 30.951 156.75Z" fill="#32142A"/>
<path d="M18.9726 146.384C18.8118 146.063 18.8118 145.661 18.8922 145.259C18.8922 144.857 19.0529 144.536 19.3745 144.295C19.5353 144.214 19.6961 144.054 19.8569 143.973C20.5 143.732 21.2235 143.732 21.7863 144.134C22.349 144.455 22.6706 145.179 22.5902 145.821C22.4294 146.384 22.0275 146.866 21.4647 147.027C21.4647 147.027 19.5353 147.589 18.9726 146.384Z" fill="#32142A"/>
<path d="M10.6922 150.643C10.5314 150.321 10.5314 149.92 10.6118 149.518C10.6118 149.116 10.7726 148.795 11.0941 148.554C11.2549 148.473 11.4157 148.313 11.5765 148.232C12.2196 147.991 12.9431 147.991 13.5059 148.393C14.0686 148.714 14.3902 149.438 14.3098 150.08C14.149 150.643 13.7471 151.125 13.1843 151.286C13.2647 151.286 11.3353 151.848 10.6922 150.643Z" fill="#32142A"/>
<path d="M9.4059 159.402C9.24512 159.08 9.24512 158.679 9.32551 158.277C9.32551 157.875 9.48629 157.554 9.80786 157.312C9.96865 157.232 10.1294 157.071 10.2902 156.991C10.9334 156.75 11.6569 156.75 12.2196 157.152C12.7824 157.473 13.1039 158.196 13.0235 158.839C12.8628 159.402 12.4608 159.884 11.8981 160.045C11.9785 160.045 10.049 160.607 9.4059 159.402Z" fill="#32142A"/>
<path d="M16.4 165.348C16.2392 165.027 16.2392 164.625 16.3196 164.223C16.3196 163.821 16.4804 163.5 16.8019 163.259C16.9627 163.179 17.1235 163.018 17.2843 162.937C17.9274 162.696 18.651 162.696 19.2137 163.098C19.7765 163.42 20.098 164.143 20.0176 164.786C19.8568 165.348 19.4549 165.83 18.8921 165.991C18.8921 166.071 16.9627 166.554 16.4 165.348Z" fill="#32142A"/>
<path d="M25.8863 163.5C25.7255 163.179 25.7255 162.777 25.8059 162.375C25.8059 161.973 25.9666 161.652 26.2882 161.411C26.449 161.33 26.6098 161.17 26.7706 161.089C27.4137 160.848 28.1372 160.848 28.7 161.25C29.2627 161.571 29.5843 162.295 29.5039 162.938C29.3431 163.5 28.9412 163.982 28.3784 164.143C28.4588 164.223 26.5294 164.705 25.8863 163.5Z" fill="#32142A"/>
<path d="M55.9529 155.866C55.8725 155.625 55.8725 155.384 55.9529 155.143C55.9529 154.741 56.1941 154.42 56.5961 154.259C57.0784 154.098 57.5608 154.179 57.9627 154.42C58.3647 154.661 58.5255 155.143 58.4451 155.625C58.2843 156.027 58.0431 156.268 57.6412 156.429C57.6412 156.348 56.2745 156.67 55.9529 155.866Z" fill="#32142A"/>
<path d="M57.9628 161.411C57.8824 161.17 57.8824 160.929 57.9628 160.687C57.9628 160.446 58.1235 160.205 58.2843 159.964C58.3647 159.884 58.5255 159.804 58.6059 159.804C59.0883 159.643 59.5706 159.643 59.9726 159.884C60.3745 160.125 60.6157 160.607 60.4549 161.089C60.2941 161.491 60.053 161.732 59.651 161.893C59.7314 161.893 58.3647 162.295 57.9628 161.411Z" fill="#32142A"/>
<path d="M49.7627 153.937C49.6824 153.696 49.6824 153.455 49.7627 153.214C49.7627 152.973 49.9235 152.732 50.0843 152.491C50.1647 152.411 50.3255 152.33 50.4059 152.33C50.8882 152.17 51.3706 152.17 51.7726 152.411C52.1745 152.652 52.3353 153.134 52.2549 153.616C52.0941 154.018 51.8529 154.259 51.451 154.42C51.5314 154.5 50.1647 154.821 49.7627 153.937Z" fill="#32142A"/>
<path d="M43.9745 156.83C43.8941 156.589 43.8941 156.348 43.9745 156.107C43.9745 155.866 44.1353 155.625 44.2961 155.384C44.3765 155.304 44.5373 155.223 44.6177 155.223C45.1 155.062 45.5824 155.063 45.9843 155.304C46.3863 155.545 46.5471 156.027 46.4667 156.509C46.3059 156.911 46.0647 157.152 45.6628 157.313C45.7432 157.313 44.3765 157.634 43.9745 156.83Z" fill="#32142A"/>
<path d="M42.9294 162.857C42.7686 162.375 42.9294 161.812 43.251 161.411C43.3314 161.33 43.4922 161.25 43.5725 161.25C44.0549 161.089 44.5373 161.089 44.9392 161.33C45.3412 161.571 45.5824 162.054 45.4216 162.536C45.3412 162.937 45.0196 163.259 44.6176 163.42C44.698 163.42 43.3314 163.741 42.9294 162.857Z" fill="#32142A"/>
<path d="M47.6725 167.116C47.5921 166.875 47.5921 166.634 47.6725 166.393C47.6725 166.152 47.8333 165.911 47.9941 165.67C48.0745 165.589 48.2353 165.509 48.3157 165.509C48.798 165.348 49.2804 165.429 49.6823 165.589C50.0843 165.83 50.2451 166.312 50.1647 166.795C50.0039 167.196 49.7627 167.437 49.3608 167.598C49.4412 167.598 48.0745 168 47.6725 167.116Z" fill="#32142A"/>
<path d="M54.3451 165.991C54.2647 165.75 54.2647 165.509 54.3451 165.268C54.3451 165.027 54.5059 164.786 54.6667 164.545C54.747 164.464 54.9078 164.384 54.9882 164.384C55.4706 164.223 55.9529 164.223 56.3549 164.464C56.7569 164.705 56.9176 165.187 56.8372 165.67C56.6765 166.071 56.4353 166.312 56.0333 166.473C56.0333 166.554 54.747 166.875 54.3451 165.991Z" fill="#32142A"/>
<path d="M36.0961 176.116L23.0725 154.982C22.9118 154.58 22.5902 154.259 22.1882 154.098C21.7863 153.937 21.3039 153.937 20.9019 154.098L17.847 154.661C22.6706 161.812 26.9314 169.366 30.3882 177.241" fill="#32142A"/>
<path d="M210.869 245.866C213.924 241.045 215.451 235.339 215.21 229.634C215.21 229.634 212.476 238.634 195.996 245.062L210.869 245.866Z" fill="#307549"/>
<path d="M324.784 220.473L301.31 205.929L322.694 237.107L324.784 220.473Z" fill="#122D1C"/>
<path d="M131.361 156.268C132.406 175.955 126.618 195.402 126.376 215.089C126.296 216.134 126.457 217.259 126.778 218.223C127.663 220.312 130.235 221.196 132.567 221.518C139.561 222.482 146.635 220.393 153.308 217.902C156.363 216.777 159.578 215.411 161.508 212.839C163.437 210.268 163.839 206.652 164.08 203.357C165.286 187.366 166.573 160.688 165.849 144.616L131.361 156.268Z" fill="#FFC9A0"/>
<path d="M170.753 182.545C178.712 167.679 186.188 150.884 182.49 137.223C181.847 134.33 180.4 131.759 178.229 129.67C173.084 125.009 165.045 126.295 158.212 127.661C149.208 129.509 138.435 130.554 132.245 123.804C130.878 122.357 129.833 120.589 128.306 119.464C126.778 118.339 124.286 117.857 122.839 119.223C121.874 120.107 121.633 121.554 121.553 122.839C120.427 133.366 121.874 144.455 127.663 153.295C133.451 162.134 144.063 168.241 154.514 166.714C155.639 166.554 156.925 166.393 157.649 167.196C157.971 167.598 158.131 168 158.292 168.482L162.553 182.545H170.753Z" fill="#32142A"/>
<path d="M160.543 177.08C164.402 174.268 169.869 175.071 172.763 179.009C174.853 181.821 175.014 185.598 173.245 188.571C170.673 192.911 164.884 194.196 159.82 194.116L160.543 177.08Z" fill="#FFC9A0"/>
<path d="M177.425 168.884C157.327 169.527 131.441 155.545 131.441 155.545C131.522 158.518 131.361 163.098 131.361 165.991C144.947 167.598 161.347 174.991 175.014 174.188C175.014 174.188 176.3 171.696 177.425 168.884Z" fill="#39B55D"/>
<path d="M126.376 150.723C128.788 156.509 133.933 160.929 139.722 163.42C145.51 165.911 151.861 166.714 158.212 166.955C159.659 167.036 161.106 166.955 162.553 166.795C164.482 166.312 166.412 165.589 168.18 164.625L126.376 150.723Z" fill="#32142A"/>
<path d="M351.475 237.027L354.931 239.036L351.475 178.045L350.429 177L351.475 237.027Z" fill="#EFB086"/>
<path d="M277.755 274.473L277.996 277.205L318.353 276.643L318.674 273.67L277.755 274.473Z" fill="#EFB086"/>
<path d="M154.031 203.759C162.071 205.045 175.094 206.25 183.133 207.536C189.404 208.5 195.835 209.545 201.543 212.196C207.251 214.848 212.557 219.429 214.486 225.455C215.129 227.304 215.29 229.312 215.049 231.241C214.084 237.187 208.055 240.723 202.508 243.054C186.992 249.643 170.512 253.42 153.71 254.304L154.031 203.759Z" fill="#39B55D"/>
<path d="M165.206 254.304C164.482 237.027 164.884 219.75 166.492 202.473C166.492 201.187 165.367 200.062 164.08 200.062C162.714 200.062 161.669 201.187 161.588 202.473C159.98 219.67 159.578 237.027 160.302 254.304C160.463 257.437 165.367 257.437 165.206 254.304Z" fill="#153A23"/>
<path d="M164.161 216.054C170.592 215.652 177.104 215.652 183.535 216.054C190.449 216.616 199.131 219.348 205.804 221.277C208.778 222 211.592 223.205 214.165 224.652C216.898 226.259 219.31 222.08 216.657 220.393C211.271 217.179 204.759 215.652 198.649 214.607C191.173 213.321 183.696 212.678 176.139 212.518C172.361 212.437 168.582 212.437 164.804 212.679C161.669 212.839 161.669 217.741 164.804 217.58L164.161 216.054Z" fill="#153A23"/>
<path d="M163.759 232.045C200.337 230.518 215.21 229.634 219.631 231C220.918 231.402 222.043 229.955 222.043 228.589C222.043 227.304 220.918 225.937 219.631 226.179C200.337 229.071 182.41 227.866 163.759 227.223C160.624 227.143 160.624 232.045 163.759 232.045Z" fill="#153A23"/>
<path d="M163.678 245.464C177.988 246.107 192.78 246.429 206.849 243.295C210.467 242.491 214.004 241.366 217.461 239.839C218.586 239.116 218.988 237.67 218.345 236.464C217.622 235.339 216.175 234.938 214.969 235.58C209.261 238.152 202.829 239.277 196.639 240C189.484 240.804 183.535 242.571 176.3 242.491C172.522 242.411 166.733 242.089 162.955 241.929C159.9 241.848 160.543 245.304 163.678 245.464Z" fill="#153A23"/>
<path d="M128.869 220.393L154.031 212.92V217.821L128.869 220.393Z" fill="#EFB086"/>
<path d="M164.724 193.714C164.724 193.714 161.829 193.795 160.624 193.312L164.563 195.723L164.724 193.714Z" fill="#EFB086"/>
<path d="M162.231 190.982C164.241 191.223 166.251 190.741 167.939 189.696C169.386 188.813 170.271 187.286 170.512 185.598C170.753 183.991 170.592 182.304 169.869 180.777C169.225 179.411 168.02 178.527 166.573 178.205C164.884 177.884 163.035 178.125 161.508 178.929C161.106 179.17 160.945 179.732 161.186 180.134C161.427 180.536 161.91 180.696 162.312 180.455C164.08 179.652 167.055 179.33 168.18 181.339C168.743 182.464 168.984 183.75 168.824 184.955C168.824 186.161 168.261 187.286 167.376 188.089C165.849 189.134 164 189.616 162.231 189.375C161.749 189.375 161.347 189.777 161.347 190.259C161.347 190.58 161.749 190.902 162.231 190.982Z" fill="#32142A"/>
<path d="M162.633 187.366C163.276 187.366 164 187.286 164.563 186.964C165.206 186.643 165.608 186.161 165.849 185.438C166.171 184.714 166.171 183.991 165.849 183.268C165.608 182.786 165.125 182.304 164.643 182.143C163.92 181.821 163.196 181.741 162.473 181.741C161.99 181.741 161.588 182.143 161.588 182.625C161.588 183.107 161.99 183.509 162.473 183.509H162.955H163.196C163.276 183.509 163.357 183.509 163.276 183.509C163.437 183.509 163.598 183.589 163.759 183.589L163.92 183.67H163.839H163.92C164 183.67 164.08 183.75 164.08 183.75H164.161H164.08L164.322 183.991C164.241 183.911 164.241 183.911 164.322 183.911L164.402 183.991V184.071C164.482 184.152 164.402 184.152 164.402 183.991C164.402 184.071 164.402 184.071 164.482 184.152C164.482 184.232 164.482 184.232 164.482 184.152V184.232C164.482 184.313 164.482 184.554 164.482 184.313C164.482 184.393 164.482 184.473 164.402 184.554C164.322 184.714 164.322 184.875 164.241 184.955V184.875L164.161 184.955C164.161 185.036 164.08 185.116 164.08 185.116C164.161 185.036 164.161 185.036 164.161 185.036L164.08 185.116L164 185.196C164.08 185.116 164.08 185.116 164.08 185.196L163.92 185.277H163.839C163.759 185.357 163.518 185.357 163.437 185.357C163.357 185.357 163.116 185.438 163.357 185.357C163.276 185.357 163.196 185.357 163.116 185.357H162.633C162.151 185.438 161.829 185.839 161.829 186.321C161.91 186.964 162.231 187.286 162.633 187.366Z" fill="#32142A"/>
<path d="M130.155 179.812C128.949 180.696 125.171 189.536 124.527 195.964C124.447 197.089 125.251 198.134 126.457 198.214C128.386 198.375 130.235 198.375 132.165 198.214C132.406 198.214 132.647 198.134 132.888 198.054C133.129 197.732 133.29 197.411 133.21 197.009L130.155 179.812Z" fill="#E48929"/>
<path d="M260.551 61.3661L252.673 67.875H258.3L260.551 61.3661Z" fill="#EFB086"/>
<path d="M395.931 168.964L423.104 181.42C423.104 181.42 431.223 151.848 435.002 125.973L421.094 122.277L395.931 168.964Z" fill="#39B55D"/>
<path d="M417.476 130.232C421.014 123.964 430.741 129.911 432.751 132.643C434.841 135.455 437.896 130.554 440.308 128.063C443.122 125.089 453.492 122.277 460.727 120.589C465.229 119.545 469.731 118.339 474.314 117.455C477.449 116.813 483.72 116.491 485.327 114.643C490.553 108.777 478.735 107.893 475.52 107.813C464.908 107.411 454.296 107.652 443.684 107.411C435.404 107.25 421.175 107.089 418.682 109.179C414.1 113.116 412.974 122.839 412.09 128.384C411.125 134.491 414.341 135.777 417.476 130.232Z" fill="#153A23"/>
<path d="M400.835 170.491C401.639 168 402.684 165.67 403.971 163.339C404.292 162.777 404.131 161.973 403.569 161.652C403.006 161.33 402.202 161.491 401.88 162.054C400.594 164.545 399.469 167.116 398.584 169.768C398.423 170.411 398.825 171.054 399.469 171.295C399.951 171.536 400.594 171.134 400.835 170.491Z" fill="#227B3D"/>
<path d="M405.739 173.063C406.382 170.411 407.508 167.839 409.035 165.589C409.357 165.027 409.196 164.223 408.553 163.902C407.99 163.58 407.186 163.741 406.865 164.384C405.176 166.795 403.971 169.527 403.327 172.42C403.167 173.063 403.569 173.705 404.212 173.946C404.855 174.107 405.578 173.705 405.739 173.063Z" fill="#227B3D"/>
<path d="M411.206 175.071C411.206 174.911 411.206 174.911 411.206 175.071C411.206 174.911 411.206 174.83 411.206 174.75C411.206 174.67 411.286 174.429 411.286 174.268C411.367 173.946 411.367 173.705 411.447 173.384C411.608 172.741 411.769 172.179 412.01 171.536C412.171 170.973 412.412 170.411 412.733 169.929C413.055 169.366 413.376 168.804 413.698 168.241C414.02 167.679 413.859 166.875 413.296 166.554C412.733 166.232 412.01 166.393 411.608 167.036C410 169.446 409.035 172.179 408.714 175.071C408.714 175.714 409.276 176.277 409.92 176.277C410.563 176.277 411.126 175.714 411.206 175.071Z" fill="#227B3D"/>
<path d="M416.11 178.205C416.351 175.795 416.914 173.384 417.798 171.054C417.959 170.411 417.557 169.768 416.914 169.527C416.271 169.366 415.627 169.768 415.386 170.411C414.422 172.902 413.778 175.554 413.618 178.205C413.618 178.848 414.18 179.411 414.824 179.411C415.547 179.411 416.11 178.929 416.11 178.205Z" fill="#227B3D"/>
<path d="M420.049 180.536L423.024 173.143C423.184 172.5 422.782 171.857 422.139 171.616C421.496 171.455 420.853 171.857 420.612 172.5L417.637 179.893C417.476 180.536 417.878 181.179 418.522 181.42C419.165 181.5 419.888 181.179 420.049 180.536Z" fill="#227B3D"/>
<path d="M308.786 357.643C306.535 376.446 305.088 389.705 302.837 405.857L285.875 407.464C284.91 386.25 284.026 372.911 283.463 357.241L308.786 357.643Z" fill="#39B55D"/>
<path d="M303.32 401.518C302.676 406.179 302.435 410.839 301.792 415.5C301.229 419.759 296.325 419.438 293.11 419.598C284.508 420.08 278.88 420.241 272.047 420.241C267.625 420.402 263.204 420.482 258.782 420.563C256.531 420.563 254.361 420.563 252.11 420.563C250.663 420.563 247.447 420.723 246.402 420.241C243.749 418.955 243.829 413.411 246.804 412.366C251.949 410.598 257.978 410.839 263.365 410.036C269.073 409.312 274.62 407.866 280.006 405.857C282.9 404.732 285.874 403.286 288.929 403.607C290.939 403.848 292.788 404.812 294.718 405.054C296.406 405.295 298.416 404.732 299.3 403.366C299.702 402.643 300.184 402.08 300.747 401.518C302.033 400.393 303.641 399.268 303.32 401.518Z" fill="#153A23"/>
<path d="M286.598 365.357C286.357 362.625 286.357 359.973 286.598 357.241C286.598 356.598 286.035 356.036 285.392 356.036C284.749 356.036 284.186 356.598 284.186 357.241C283.945 359.973 284.025 362.625 284.186 365.357C284.106 366 284.508 366.643 285.231 366.723C285.875 366.804 286.518 366.402 286.598 365.679C286.598 365.679 286.598 365.518 286.598 365.357Z" fill="#227B3D"/>
<path d="M292.145 365.437C291.663 362.866 291.663 360.214 292.145 357.562C292.306 356.92 291.904 356.277 291.261 356.036C290.618 355.875 289.975 356.277 289.733 356.92C289.171 359.973 289.171 363.027 289.733 366.08C289.894 366.723 290.618 367.125 291.261 366.964C291.904 366.804 292.306 366.161 292.145 365.437Z" fill="#227B3D"/>
<path d="M297.933 365.437C297.21 363.107 297.049 360.616 297.451 358.205C297.612 357.562 297.21 356.92 296.567 356.679C295.924 356.518 295.28 356.92 295.039 357.562C294.557 360.375 294.718 363.348 295.522 366.08C295.682 366.723 296.406 367.125 297.049 366.964C297.692 366.804 298.175 366.08 297.933 365.437Z" fill="#227B3D"/>
<path d="M303.802 366.321C302.998 363.991 302.516 361.58 302.435 359.089C302.516 358.446 302.114 357.804 301.39 357.723C300.747 357.643 300.104 358.045 300.024 358.768C300.024 358.929 300.024 359.009 300.024 359.17C300.104 361.821 300.586 364.473 301.471 367.045C301.631 367.688 302.355 368.089 302.998 367.929C303.641 367.768 303.963 366.964 303.802 366.321Z" fill="#227B3D"/>
<path d="M308.223 366.884L307.982 358.929C308.063 358.286 307.661 357.643 306.937 357.563C306.294 357.482 305.651 357.884 305.571 358.607C305.571 358.768 305.571 358.848 305.571 359.009L305.812 366.964C305.731 367.607 306.133 368.25 306.857 368.33C307.5 368.411 308.143 368.009 308.223 367.286C308.223 367.125 308.223 366.964 308.223 366.884Z" fill="#227B3D"/>
<path d="M275.504 175.714C284.186 173.143 292.708 171.134 301.551 170.893C312.565 170.571 323.418 173.384 332.824 179.009C339.737 183.348 346.008 188.732 351.233 195C352.198 195.964 353.726 195.964 354.69 195C355.655 194.036 355.655 192.509 354.69 191.545C345.526 180.938 334.029 172.259 320.524 168.321C310.073 165.348 299.22 165.429 288.608 167.357C283.784 168.321 278.961 169.527 274.218 170.973C271.243 171.938 272.529 176.679 275.504 175.714Z" fill="#307549"/>
<path d="M461.049 104.679C448.267 109.42 432.751 107.411 421.496 94.634C414.743 86.9197 412.975 76.7143 414.904 66.8304C420.773 36.8572 464.747 29.3036 479.861 56.5447C491.759 78.1607 479.057 98.009 461.049 104.679Z" fill="#BBD1CE"/>
<path d="M142.375 175.955H143.098L143.5 176.036C143.822 176.036 143.42 176.036 143.339 176.036C143.822 176.196 144.304 176.196 144.786 176.357C145.269 176.518 145.671 176.679 146.073 176.839C146.394 176.92 145.59 176.598 145.992 176.759L146.314 176.92C146.555 177 146.796 177.161 147.037 177.241C147.439 177.482 147.841 177.723 148.243 177.964L148.484 178.125C148.886 178.446 148.163 177.884 148.404 178.045C148.645 178.205 148.726 178.366 148.967 178.527C149.369 178.848 149.69 179.17 150.012 179.571L150.173 179.813C150.414 180.134 150.253 179.893 150.092 179.732C150.253 179.973 150.414 180.134 150.575 180.375C151.218 181.5 152.745 181.902 153.951 181.259C155.157 180.616 155.478 179.089 154.835 177.884C152.102 173.786 147.52 171.214 142.535 171.054C141.169 171.054 140.124 172.179 140.043 173.545C140.043 174.83 141.088 175.875 142.375 175.955Z" fill="#32142A"/>
<path d="M142.053 181.902C141.973 181.982 141.973 182.062 141.892 182.143C141.41 183.187 140.365 185.839 141.169 186.884C141.973 187.929 143.5 187.607 144.384 186.723C145.671 185.277 145.671 183.107 144.384 181.661C143.982 181.179 143.339 180.937 142.696 181.179C142.455 181.42 142.214 181.661 142.053 181.902Z" fill="#32142A"/>
<path d="M145.269 193.071C147.278 191.786 148.886 189.857 149.771 187.607C149.931 187.125 149.61 186.723 149.208 186.563C148.726 186.482 148.324 186.723 148.163 187.125L148.082 187.205L148.002 187.286L147.841 187.607C147.761 187.848 147.6 188.089 147.439 188.33C147.278 188.571 147.198 188.813 147.037 188.973L146.796 189.295C146.877 189.134 146.716 189.375 146.716 189.375L146.635 189.536C146.314 189.938 145.912 190.339 145.51 190.661L145.188 190.902L145.027 191.063C145.108 190.982 145.028 191.063 144.947 191.063C144.706 191.223 144.545 191.384 144.304 191.545C143.902 191.786 143.661 192.268 143.902 192.67C144.143 193.071 144.626 193.313 145.027 193.071C145.188 193.071 145.188 192.991 145.269 193.071Z" fill="#32142A"/>
<path d="M148.565 194.679C149.61 194.036 150.575 193.232 151.298 192.268C151.459 192.107 151.459 191.866 151.378 191.625C151.298 191.384 151.137 191.223 150.977 191.143C150.816 191.062 150.575 190.982 150.333 191.062C150.092 191.143 149.931 191.304 149.851 191.464L149.771 191.625L149.931 191.464C149.529 191.946 149.047 192.429 148.565 192.83L148.726 192.67C148.404 192.911 148.082 193.152 147.761 193.312C147.359 193.554 147.198 194.116 147.439 194.518C147.6 194.839 148.163 195 148.565 194.679Z" fill="#32142A"/>
<path d="M462.657 82.2589C457.431 84.3482 452.849 86.9196 447.704 89.0089C443.523 84.9107 438.459 82.5 434.278 78.3214C434.037 77.5178 434.52 79.125 434.278 78.3214C435.404 73.0178 436.69 67.5536 437.816 62.1696C442.8 60.9643 446.82 59.4375 451.804 58.3928L451.161 58.3125C455.743 61.6875 460.004 63.5357 464.506 66.9107C464.104 66.0268 464.908 67.875 464.506 66.9107C463.702 71.8928 463.461 77.2768 462.657 82.2589C462.416 83.5446 460.727 84.6696 462.094 84.9911C463.3 85.3125 464.908 84.5893 465.149 83.3036L467.48 68.5178C467.722 67.4732 467.239 66.3482 466.355 65.7857L458.878 60.2411L454.135 56.7053C453.733 56.3839 453.331 56.0625 452.929 55.8214C451.724 55.0178 450.196 55.5803 448.91 55.9018C444.649 56.9464 440.469 58.5536 436.208 59.5982C435.404 59.8393 434.68 60.4821 434.52 61.2857L432.51 71.1696L431.384 76.4732C431.223 76.9553 431.143 77.4375 431.143 77.9196C431.143 79.8482 433.876 81.5357 435.243 82.5803C438.62 85.2321 442.318 87.6428 445.453 90.6964C446.096 91.3393 446.98 91.5803 447.865 91.3393L463.541 85.0714C464.827 84.6696 465.551 83.3839 465.229 82.0178C464.827 80.8125 463.863 81.7768 462.657 82.2589Z" fill="#153A23"/>
<path d="M462.094 84.0268C462.335 84.1071 462.978 84.4285 462.094 84.0268L462.657 84.2678C465.39 85.6339 467.963 87.4821 470.696 88.9285C471.822 89.5714 473.028 90.1339 474.233 90.5357C474.877 90.7768 479.7 91.3393 478.012 90.1339C476.484 89.0893 473.188 87.241 471.259 85.9553C468.686 84.2678 466.194 82.3393 463.863 80.3303C466.837 82.9018 463.461 82.9017 461.773 83.866C461.933 83.9464 462.014 84.0268 462.094 84.0268Z" fill="#153A23"/>
<path d="M443.122 103.152C444.649 98.491 446.82 94.2321 448.508 89.6518C448.99 88.4464 447.945 90.2143 446.739 89.9732C445.373 89.6518 445.212 88.0446 444.729 89.3303C443.041 93.9107 442.398 97.7678 440.871 102.429C440.469 103.634 440.067 104.839 441.273 105.161C442.478 105.482 442.318 105 442.72 103.714L443.122 103.152Z" fill="#153A23"/>
<path d="M432.831 76.1517C431.947 76.3124 431.143 76.5535 430.259 76.9553C428.49 77.5178 426.722 77.8392 424.873 77.9196C423.586 78.0803 422.3 78.241 421.014 78.4017C420.129 78.4821 418.602 78.8839 417.718 79.0446C416.833 79.2053 415.949 79.5267 417.316 80.3303C417.718 80.491 418.12 80.5714 418.522 80.491C421.255 80.491 423.988 80.491 426.722 80.7321C429.375 81.0535 432.108 81.0535 434.841 80.7321C436.128 80.5714 432.912 79.0446 432.59 78.1607C432.269 77.2767 434.198 75.9107 432.831 76.1517Z" fill="#153A23"/>
<path d="M437.414 59.5179C437.253 59.4375 437.092 60 436.931 59.9197C436.931 59.9197 437.494 59.5983 437.253 59.4375C437.173 59.4375 437.092 60 436.931 59.9197C436.529 59.759 436.208 59.5983 435.806 59.3572C434.118 58.4733 432.51 57.4286 430.822 56.5447C429.133 55.6608 427.606 54.8572 425.998 54.0536C425.355 53.7322 422.943 52.4465 422.782 53.25C422.782 53.8929 423.023 54.5358 423.506 54.9375C424.792 56.1429 426.239 57.3483 427.686 58.3929C429.053 59.5983 430.58 60.6429 432.108 61.6875C433.796 62.7322 434.198 63.6161 436.047 64.259C437.253 64.6608 434.922 63.4554 435.243 62.25C435.645 60.884 438.7 60 437.414 59.5179Z" fill="#153A23"/>
<path d="M453.171 58.0714C453.814 56.9464 454.376 56.5446 454.618 55.3393C455.261 52.8482 456.225 50.5178 457.351 48.1875C458.155 46.6607 458.878 45.0536 459.602 43.3661C459.763 42.8036 460.084 41.8393 459.602 41.3571C459.28 41.0357 458.637 41.1964 458.316 41.4375C457.672 41.9196 457.19 42.5625 456.869 43.2857C455.582 45.5357 454.216 47.7857 453.01 50.1161C452.447 51.2411 451.965 52.3661 451.322 53.4107C450.678 54.4553 450.035 55.5 449.392 56.5446C448.749 57.5893 450.518 56.1428 451.723 56.7857C452.929 57.4286 452.447 59.1964 453.171 58.0714Z" fill="#153A23"/>
<path d="M466.355 69.9643C469.49 68.3572 472.706 66.8304 475.922 65.384L475.6 65.5447C476.967 65.1429 481.871 62.4911 481.227 61.2857C480.906 60.6429 477.047 61.7679 476.002 62.25C474.957 62.7322 471.661 63.6965 470.455 64.0982C468.284 64.7411 465.953 64.7411 463.943 65.7857C462.818 66.3482 464.747 66.509 465.39 67.634C466.033 68.759 465.149 70.6072 466.355 69.9643Z" fill="#153A23"/>
<path d="M427.043 110.384L427.124 107.009L425.355 109.339C427.525 109.018 429.776 108.616 431.947 108.214L431.304 108.295C431.465 108.295 431.545 108.295 431.706 108.295L431.063 108.214C431.465 108.295 431.224 108.134 430.42 107.813C430.259 107.652 430.178 107.491 430.098 107.33C429.937 106.929 430.098 107.33 430.098 107.411C430.178 107.732 430.259 108.054 430.339 108.375L430.741 110.464C431.143 111.75 432.429 112.554 433.716 112.152C435.002 111.75 435.725 110.464 435.404 109.098C435.163 108.054 435.002 107.009 434.761 105.964C434.6 105.161 434.118 104.518 433.555 104.036C432.671 103.393 431.625 103.232 430.58 103.473C428.41 103.795 426.239 104.196 424.069 104.518C423.586 104.679 423.104 104.92 422.782 105.402C422.461 105.804 422.3 106.366 422.22 106.929L422.139 110.304C422.139 111.589 423.265 112.714 424.551 112.714C425.918 112.714 426.963 111.67 427.043 110.384Z" fill="#153A23"/>
<path d="M466.274 106.687C466.194 106.687 466.194 106.607 466.114 106.607L466.516 107.089C466.516 107.009 466.435 107.009 466.435 106.929L466.676 107.491C466.676 107.411 466.676 107.411 466.596 107.33L466.676 107.973C466.676 107.893 466.676 107.812 466.676 107.732L466.596 108.375C466.596 108.295 466.676 108.214 466.676 108.134L466.435 108.696C466.435 108.616 466.516 108.616 466.516 108.536L466.114 109.018C466.194 108.937 466.274 108.857 466.274 108.857L465.792 109.259C465.873 109.179 466.033 109.098 466.114 109.098L465.551 109.339C465.712 109.259 465.873 109.259 466.033 109.259L465.39 109.339C466.194 109.259 466.998 109.259 467.882 109.259C468.686 109.259 469.41 109.259 470.214 109.339L469.571 109.259C469.812 109.339 470.133 109.339 470.374 109.5L469.812 109.259C469.973 109.339 470.133 109.42 470.294 109.58L469.812 109.179C469.973 109.259 470.053 109.42 470.133 109.5L469.731 109.018C469.812 109.179 469.892 109.339 469.973 109.5L469.731 108.937C469.812 109.098 469.812 109.179 469.812 109.339L469.731 108.696C469.731 108.857 469.731 108.937 469.731 109.098L469.812 108.455C469.812 108.536 469.812 108.616 469.731 108.696L469.973 108.134C469.973 108.214 469.892 108.295 469.812 108.375C469.169 109.58 469.49 111.027 470.696 111.75C471.902 112.393 473.349 111.991 474.073 110.866C475.037 109.259 474.716 107.17 473.269 105.884C471.982 104.679 470.294 104.518 468.606 104.518H466.516C465.712 104.518 464.988 104.598 464.184 104.759C463.059 105.08 462.094 106.045 461.773 107.17C461.451 108.295 461.772 109.58 462.657 110.384C463.139 110.786 463.702 111.107 464.425 111.107C465.712 111.107 466.837 109.982 466.837 108.696C466.837 108.054 466.596 107.411 466.114 107.009L466.274 106.687Z" fill="#153A23"/>
<path d="M253.718 417.509C251.949 418.955 252.592 422.009 254.522 423.054C256.129 424.018 257.978 423.616 259.667 423.455L261.998 423.214C262.882 423.214 263.767 423.054 264.651 422.893C266.098 422.491 267.063 421.286 267.063 419.839C267.063 419.116 267.063 418.313 267.063 417.589C267.063 416.223 265.937 415.179 264.651 415.179C263.284 415.179 262.239 416.304 262.239 417.589V419.196C262.239 419.357 262.239 419.518 262.239 419.598C262.239 419.92 262.239 419.518 262.32 419.357L263.124 418.313C263.526 418.152 263.606 418.152 263.445 418.152C263.284 418.152 264.088 418.071 263.686 418.152C262.561 418.232 261.355 418.393 260.229 418.473C259.184 418.634 258.059 418.714 257.014 418.795C256.933 418.795 256.853 418.795 256.692 418.795C257.094 418.875 257.175 418.875 257.014 418.795H256.853C256.612 418.795 257.255 419.116 256.933 418.875C256.933 418.875 257.416 419.277 257.175 419.036C257.416 419.357 257.496 419.437 257.416 419.277C257.335 419.196 257.416 419.196 257.496 419.437C257.576 419.679 257.576 419.679 257.576 419.598C257.576 419.518 257.576 419.518 257.576 420C257.576 419.679 257.496 420.321 257.496 420.321C257.416 420.563 257.335 420.723 257.175 420.884C257.014 421.045 257.014 421.125 257.094 420.964C258.059 420 258.059 418.473 257.094 417.509C256.21 416.625 254.682 416.625 253.718 417.509Z" fill="#153A23"/>
<path d="M288.688 422.411H293.351C293.833 422.411 294.396 422.411 294.878 422.25C295.763 422.009 296.486 421.366 296.808 420.562C297.049 419.598 297.129 418.554 297.049 417.509C297.049 416.866 296.808 416.223 296.326 415.741C295.441 414.777 293.914 414.696 292.949 415.661C292.467 416.143 292.145 416.786 292.226 417.509C292.226 418.152 292.226 418.795 292.226 419.437L292.306 418.795C292.306 418.875 292.306 418.875 292.306 418.955L292.547 418.393V418.473L292.949 417.991C292.949 418.071 292.869 418.071 292.869 418.071L293.351 417.67C293.351 417.67 293.271 417.75 293.19 417.75L293.753 417.509C293.673 417.509 293.592 417.509 293.512 417.589L294.155 417.509C293.271 417.589 292.386 417.509 291.502 417.509H288.769C288.126 417.509 287.482 417.75 287.08 418.232C286.598 418.714 286.357 419.277 286.357 420C286.357 421.205 287.402 422.33 288.688 422.411Z" fill="#153A23"/>
<path d="M287 409.473C289.412 411.241 291.824 413.33 294.155 415.339C294.637 415.821 295.441 415.821 295.924 415.339C296.406 414.857 296.406 414.054 295.924 413.571C293.431 411.402 290.859 409.313 288.286 407.304C287.724 406.982 286.92 407.143 286.598 407.705C286.276 408.348 286.437 409.071 287 409.473Z" fill="#227B3D"/>
<path d="M281.855 412.045C283.784 413.812 285.875 415.42 288.045 416.946C288.608 417.268 289.412 417.107 289.733 416.545C290.055 415.982 289.894 415.259 289.331 414.857C288.849 414.536 288.286 414.134 287.804 413.812C287.563 413.652 287.322 413.411 287.08 413.25L287 413.17L286.92 413.089L286.518 412.768C285.553 411.964 284.588 411.161 283.704 410.357C283.222 409.875 282.418 409.875 282.016 410.357C281.614 410.839 281.373 411.562 281.855 412.045Z" fill="#227B3D"/>
<path d="M425.274 114.643L430.822 126.054C431.143 126.616 431.947 126.857 432.51 126.536C433.073 126.214 433.314 125.411 432.912 124.848L427.365 113.518C427.043 112.955 426.239 112.714 425.676 113.116C425.114 113.357 424.953 114.08 425.274 114.643Z" fill="#227B3D"/>
<path d="M431.384 112.634C432.027 114.321 432.831 115.929 433.716 117.455C434.68 119.223 435.645 120.911 436.449 122.759C436.771 123.321 437.574 123.562 438.137 123.161C438.7 122.839 438.941 122.036 438.539 121.473C437.735 119.705 436.771 118.018 435.886 116.33C435.484 115.527 435.002 114.723 434.6 113.839C434.439 113.437 434.198 113.036 434.037 112.714L433.957 112.473C433.796 112.152 434.037 112.554 433.957 112.393C433.876 112.232 433.796 112.071 433.796 111.911C433.635 111.268 432.912 110.866 432.269 111.027C431.625 111.268 431.223 111.991 431.384 112.634Z" fill="#227B3D"/>
<path d="M268.027 39.75C274.459 32.1964 281.533 25.125 289.01 18.6161C290.216 17.5714 288.447 15.8839 287.322 16.9286C279.765 23.4375 272.771 30.5893 266.339 38.1428C265.294 39.2678 266.982 41.0357 268.027 39.75Z" fill="#EFB086"/>
<path d="M273.173 42.4018C278.639 37.0179 283.865 31.3125 289.573 26.25C290.778 25.2054 289.01 23.4375 287.804 24.5625C282.096 29.7054 276.871 35.3304 271.404 40.7947C270.278 41.7589 272.047 43.5268 273.173 42.4018Z" fill="#EFB086"/>
<path d="M89.4765 292.232C85.7785 295.768 86.6628 303.161 93.0137 301.393C102.339 298.741 95.8275 286.205 89.4765 292.232Z" fill="white"/>
<path d="M116.81 82.8213C114.961 84.5892 115.443 88.2856 118.578 87.4017C123.322 86.116 120.026 79.8481 116.81 82.8213Z" fill="white"/>
<path d="M274.298 112.554C275.343 108.777 276.71 105.08 278.318 101.464C278.559 100.902 279.122 100.259 279.604 100.5C280.086 100.741 280.086 101.464 279.925 101.946C279.122 105.321 278.318 108.777 277.514 112.152C280.729 111.83 283.865 112.312 286.839 113.598C287.08 113.679 287.241 114 287.08 114.241C287.08 114.321 287 114.402 286.92 114.482C285.151 115.607 283.061 116.17 280.971 116.089C280.247 116.009 279.363 115.929 278.8 116.491C278.478 116.893 278.318 117.295 278.237 117.777C277.514 120.75 276.469 123.562 275.022 126.214C274.861 126.455 274.539 126.616 274.218 126.455C274.057 126.375 273.976 126.214 273.976 126.054C273.414 123.402 274.539 120.429 274.459 117.616C274.459 117.295 274.378 116.973 274.218 116.732C273.976 116.411 273.574 116.25 273.173 116.25C270.198 115.607 267.224 114.723 264.41 113.598C263.606 113.277 262.722 112.473 263.284 111.83C263.445 111.67 263.686 111.589 264.008 111.509C265.776 111.187 267.625 111.187 269.394 111.509L274.298 112.554Z" fill="white"/>
<path d="M300.988 78.9642C298.094 81.6964 298.818 87.4821 303.802 86.116C311.118 84.0267 305.973 74.3035 300.988 78.9642Z" fill="white"/>
<path d="M362.488 359.009C358.79 362.545 359.675 369.937 366.026 368.17C375.431 365.518 368.839 352.982 362.488 359.009Z" fill="white"/>
<path d="M376.396 325.259C374.547 327.027 375.029 330.723 378.165 329.839C382.908 328.553 379.612 322.286 376.396 325.259Z" fill="white"/>
<path d="M410.643 330.964C408.955 326.143 407.669 321.241 406.704 316.259C406.543 315.455 406.624 314.411 407.427 314.25C408.231 314.089 408.633 314.893 408.875 315.616C410.482 319.795 412.171 324.054 413.778 328.232C416.914 325.58 420.692 323.732 424.712 322.848C425.033 322.768 425.435 323.009 425.435 323.33C425.435 323.491 425.435 323.571 425.355 323.732C424.31 326.223 422.541 328.313 420.21 329.759C419.406 330.241 418.441 330.804 418.2 331.768C418.12 332.411 418.28 333.054 418.522 333.616C419.969 337.232 420.853 341.089 421.335 344.946C421.335 345.348 421.094 345.75 420.692 345.75C420.451 345.75 420.29 345.67 420.129 345.589C417.557 343.259 416.592 339.161 414.502 336.268C414.261 335.946 413.939 335.625 413.618 335.464C413.135 335.384 412.573 335.464 412.171 335.705C408.553 337.152 404.775 338.438 400.916 339.321C399.871 339.563 398.263 339.321 398.424 338.277C398.504 337.955 398.665 337.714 398.906 337.473C400.514 335.786 402.443 334.5 404.614 333.536L410.643 330.964Z" fill="white"/>
<path d="M429.776 296.25C427.927 298.018 428.41 301.714 431.545 300.83C436.288 299.464 432.992 293.277 429.776 296.25Z" fill="white"/>
<path d="M79.8294 336.187C80.151 332.571 80.7941 329.036 81.598 325.58C81.7588 325.018 82.0804 324.375 82.6431 324.536C83.2059 324.696 83.2059 325.339 83.2059 325.821C83.0451 329.036 82.8843 332.25 82.6431 335.384C85.4568 334.58 88.4313 334.5 91.3255 335.143C91.5666 335.223 91.7274 335.384 91.7274 335.625C91.7274 335.705 91.647 335.866 91.5666 335.946C90.2 337.232 88.3509 338.116 86.5019 338.357C85.7784 338.357 85.1353 338.598 84.6529 339.08C84.4117 339.482 84.3313 339.884 84.3313 340.366C84.1706 343.098 83.6882 345.83 82.8039 348.402C82.7235 348.643 82.4019 348.804 82.1608 348.723C82 348.643 81.9196 348.562 81.8392 348.402C80.8745 346.152 81.4372 343.259 80.9549 340.768C80.9549 340.446 80.7941 340.205 80.6333 339.964C80.3117 339.723 79.9902 339.643 79.5882 339.643C76.7745 339.562 74.0411 339.241 71.2274 338.759C70.5039 338.598 69.5392 337.955 69.9411 337.393C70.1019 337.232 70.2627 337.071 70.5039 336.991C72.0313 336.429 73.7196 336.107 75.3274 336.187H79.8294Z" fill="white"/>
</g>
<defs>
<clipPath id="clip0_18610_99">
<rect width="492" height="423" fill="white" transform="translate(0 0.9375)"/>
</clipPath>
</defs>
</svg>
